<?xml version="1.0" encoding="utf-8"?>
<!-- Generator: Adobe Illustrator 17.1.0, SVG Export Plug-In . SVG Version: 6.00 Build 0)  -->
<!DOCTYPE svg PUBLIC "-//W3C//DTD SVG 1.1//EN" "http://www.w3.org/Graphics/SVG/1.1/DTD/svg11.dtd">
<svg version="1.1" id="Layer_1" xmlns="http://www.w3.org/2000/svg" xmlns:xlink="http://www.w3.org/1999/xlink" x="0px" y="0px"
	 width="41px" height="44px" viewBox="0 0 41 44" enable-background="new 0 0 41 44" xml:space="preserve">
<path fill="#FFFFFF" d="M7.1,17.2l-0.9-0.3l0.5,0.8l-0.8,0.6l0.9,0.2l-0.1,0.9l0.8-0.6l0.7,0.6l0-1l1-0.1l-0.8-0.6l0.5-0.8l-0.9,0.3
	l-0.4-0.9L7.1,17.2z"/>
<path fill="#FFFFFF" d="M6.4,23.4l0.3,0.9l1-0.3l-0.5,0.8l0.8,0.6l-1,0.1l0,1l-0.7-0.6l-0.8,0.6l0.1-1l-0.9-0.2l0.8-0.6L5.2,24
	l0.9,0.3L6.4,23.4z"/>
<path fill="#FFFFFF" d="M6.6,13.8c-0.1,0.4,0,0.5,0.2,0.7C6.7,14,7.3,13.8,7,13.3C6.8,13.4,6.6,13.6,6.6,13.8z"/>
<path fill="#FFFFFF" d="M6.9,12.9c-0.1-0.1-0.5,0.1-0.6,0.2c-0.2,0.1-0.6,0.4-0.5,0.5C6.4,13.2,6.4,13.7,6.9,12.9z"/>
<path fill="#FFFFFF" d="M8,11.4c0.3,0.1,0.4,0.3,0.6,0.3c0.2,0,0.3-0.1,0.4-0.1C8.9,11.2,8.3,11.3,8,11.4z"/>
<path fill="#FFFFFF" d="M9.4,12.7c0-0.3,0.1-0.5,0.1-0.7c-0.1-0.2-0.2-0.3-0.3-0.3C9,11.9,9.2,12.5,9.4,12.7z"/>
<path fill="#FFFFFF" d="M8,11.6c-0.3-0.1-0.7,0.1-0.8,0.2c0.3,0,0.5,0.3,0.9,0.2l0.2-0.1C8.2,11.8,8.1,11.7,8,11.6z"/>
<path fill="#FFFFFF" d="M8.5,12.3c-0.1,0.3,0.1,0.7,0.2,0.8c0-0.3,0.3-0.5,0.1-0.9l-0.1-0.2C8.6,12,8.5,12.1,8.5,12.3z"/>
<path fill="#FFFFFF" d="M9.7,15.6l-0.3,0C9,15.6,9.1,16,8.8,16.2c0.2,0,0.6,0,0.8-0.2C9.7,15.9,9.7,15.7,9.7,15.6z"/>
<path fill="#FFFFFF" d="M6.9,12.2c-0.4,0.1-0.4,0.3-0.5,0.5c0.4-0.4,0.9,0,1.1-0.5C7.4,12.1,7.1,12.1,6.9,12.2z"/>
<path fill="#FFFFFF" d="M7.8,12.9c0,0.4,0.1,0.5,0.4,0.6C7.9,13,8.5,12.6,8,12.3C7.9,12.4,7.8,12.7,7.8,12.9z"/>
<path fill="#FFFFFF" d="M7.3,12.9c0,0.5,0,1,0.2,1.2c0.1-0.4,0.2-0.6,0-0.9C7.5,13.1,7.4,12.9,7.3,12.9z"/>
<polygon points="36.2,19.4 36.2,26 4.8,26 4.8,19.4 3.7,19.4 3.7,26 3.7,29.5 3.7,32.2 4.8,32.2 4.8,29.5 36.2,29.5 36.2,32.2 
	37.3,32.2 37.3,29.5 37.3,26 37.3,19.4 "/>
</svg>
