<?xml version="1.0" encoding="utf-8"?>
<!-- Generator: Adobe Illustrator 17.1.0, SVG Export Plug-In . SVG Version: 6.00 Build 0)  -->
<!DOCTYPE svg PUBLIC "-//W3C//DTD SVG 1.1//EN" "http://www.w3.org/Graphics/SVG/1.1/DTD/svg11.dtd">
<svg version="1.1" id="Layer_1" xmlns="http://www.w3.org/2000/svg" xmlns:xlink="http://www.w3.org/1999/xlink" x="0px" y="0px"
	 width="41px" height="44px" viewBox="0 0 41 44" enable-background="new 0 0 41 44" xml:space="preserve">
<path fill="#FFFFFF" d="M7.1,17.2l-0.9-0.3l0.5,0.8l-0.8,0.6l0.9,0.2l-0.1,0.9l0.8-0.6l0.7,0.6v-1l1-0.1l-0.8-0.6l0.5-0.8L8,17.2
	l-0.4-0.9L7.1,17.2z"/>
<path fill="#FFFFFF" d="M6.4,23.4l0.3,0.9l1-0.3l-0.5,0.8L8,25.4l-1,0.1v1l-0.7-0.6l-0.8,0.6l0.1-1l-0.9-0.2l0.8-0.6L5.2,24l0.9,0.3
	L6.4,23.4z"/>
<path fill="#FFFFFF" d="M6.6,13.8c-0.1,0.4,0,0.5,0.2,0.7C6.7,14,7.3,13.8,7,13.3C6.8,13.4,6.6,13.6,6.6,13.8z"/>
<path fill="#FFFFFF" d="M6.9,12.9c-0.1-0.1-0.5,0.1-0.6,0.2c-0.2,0.1-0.6,0.4-0.5,0.5C6.4,13.2,6.4,13.7,6.9,12.9z"/>
<path fill="#FFFFFF" d="M8,11.4c0.3,0.1,0.4,0.3,0.6,0.3c0.2,0,0.3-0.1,0.4-0.1C8.9,11.2,8.3,11.3,8,11.4z"/>
<path fill="#FFFFFF" d="M9.4,12.7c0-0.3,0.1-0.5,0.1-0.7c-0.1-0.2-0.2-0.3-0.3-0.3C9,11.9,9.2,12.5,9.4,12.7z"/>
<path fill="#FFFFFF" d="M8,11.6c-0.3-0.1-0.7,0.1-0.8,0.2c0.3,0,0.5,0.3,0.9,0.2l0.2-0.1C8.2,11.8,8.1,11.7,8,11.6z"/>
<path fill="#FFFFFF" d="M8.5,12.3c-0.1,0.3,0.1,0.7,0.2,0.8c0-0.3,0.3-0.5,0.1-0.9L8.7,12C8.6,12,8.5,12.1,8.5,12.3z"/>
<path fill="#FFFFFF" d="M9.7,15.6H9.4c-0.4,0-0.3,0.4-0.6,0.6c0.2,0,0.6,0,0.8-0.2C9.7,15.9,9.7,15.7,9.7,15.6z"/>
<path fill="#FFFFFF" d="M6.9,12.2c-0.4,0.1-0.4,0.3-0.5,0.5c0.4-0.4,0.9,0,1.1-0.5C7.4,12.1,7.1,12.1,6.9,12.2z"/>
<path fill="#FFFFFF" d="M7.8,12.9c0,0.4,0.1,0.5,0.4,0.6C7.9,13,8.5,12.6,8,12.3C7.9,12.4,7.8,12.7,7.8,12.9z"/>
<path fill="#FFFFFF" d="M7.3,12.9c0,0.5,0,1,0.2,1.2c0.1-0.4,0.2-0.6,0-0.9C7.5,13.1,7.4,12.9,7.3,12.9z"/>
<g>
	<path d="M1.4,7.5c5.3,1.4,10.6,2.8,15.8,4.2c1,0.2,2,0.6,3,0.8s1.4-1.3,0.4-1.5C15.3,9.5,10,8.2,4.9,6.7c-1-0.3-2-0.6-3-0.8
		C0.9,5.6,0.4,7.2,1.4,7.5L1.4,7.5z"/>
	<path d="M1.1,7.3C5,11.1,8.8,15,12.8,18.7c0.8,0.8,1.5,1.5,2.3,2.3s1.9-0.4,1.1-1.1C12.3,16,8.5,12.2,4.5,8.4
		C3.7,7.6,3,6.8,2.2,6.1S0.3,6.5,1.1,7.3L1.1,7.3z"/>
	<path d="M1.2,7.4c4.6,2.6,9.3,5.4,14,8c1.7,1,3.3,1.9,4.9,2.9c0.9,0.6,1.8-0.9,0.8-1.4c-4.6-2.6-9.3-5.4-14-8C5.2,7.8,3.5,6.9,2,6
		C1.1,5.5,0.3,6.8,1.2,7.4L1.2,7.4z"/>
	<path d="M20.7,12.5C26,11,31.2,9.7,36.5,8.3c1-0.2,2.1-0.6,3.1-0.8s0.6-1.9-0.4-1.5c-5.3,1.4-10.5,2.8-15.8,4.2
		c-1,0.2-2.1,0.6-3.1,0.8C19.3,11.2,19.6,12.8,20.7,12.5L20.7,12.5z"/>
	<path d="M19.6,11.7c0,2.1,0,4.3,0,6.4c0,1.1,1.7,1.1,1.7,0c0-2.1,0-4.3,0-6.4C21.3,10.7,19.6,10.7,19.6,11.7L19.6,11.7z"/>
	<path d="M38.8,6.1c-3.9,3.9-7.7,7.7-11.5,11.6c-0.8,0.8-1.4,1.4-2.2,2.2s0.4,1.9,1.1,1.1c3.9-3.9,7.7-7.7,11.5-11.6
		c0.8-0.8,1.4-1.4,2.2-2.2C40.7,6.5,39.6,5.4,38.8,6.1L38.8,6.1z"/>
	<path d="M38.9,6c-4.6,2.6-9.3,5.4-14,8c-1.7,1-3.3,1.9-4.9,2.9c-0.9,0.6-0.1,2,0.8,1.4c4.6-2.6,9.3-5.4,14-8c1.7-1,3.3-1.9,4.9-2.9
		C40.7,6.8,39.9,5.5,38.9,6L38.9,6z"/>
	<path d="M24.9,20.3c-1.4,5.3-2.9,10.5-4.3,15.8c-0.3,1-0.6,2.1-0.9,3.1s1.3,1.4,1.5,0.4c1.4-5.3,2.9-10.5,4.3-15.8
		c0.3-1,0.6-2.1,0.9-3.1C26.7,19.7,25.1,19.3,24.9,20.3L24.9,20.3z"/>
	<path d="M26.1,19.8c-1.8-1-3.4-1.9-5.2-2.9c-0.9-0.6-1.8,0.9-0.8,1.4c1.8,1,3.4,1.9,5.2,2.9C26.1,21.7,27,20.3,26.1,19.8L26.1,19.8
		z"/>
	<path d="M21.3,39.1c-1.3-5.3-2.8-10.6-4.1-15.8c-0.2-1-0.6-2-0.8-3c-0.2-1-1.9-0.6-1.5,0.4c1.3,5.3,2.8,10.6,4.1,15.8
		c0.2,1,0.6,2,0.8,3C20,40.6,21.6,40.1,21.3,39.1L21.3,39.1z"/>
	<path d="M21.3,39.4c0-5.4,0-10.8,0-16.1c0-1.9,0-3.7,0-5.5c0-1.1-1.7-1.1-1.7,0c0,5.4,0,10.8,0,16.1c0,1.9,0,3.7,0,5.5
		C19.7,40.4,21.3,40.4,21.3,39.4L21.3,39.4z"/>
	<path d="M16,21.2c1.7-1,3.2-1.9,4.9-2.9c0.9-0.6,0.1-2-0.8-1.4c-1.7,1-3.2,1.9-4.9,2.9C14.3,20.3,15.1,21.7,16,21.2L16,21.2z"/>
</g>
</svg>
