<svg width="41" height="44" viewBox="0 0 41 44" fill="none" xmlns="http://www.w3.org/2000/svg">
<path d="M19.3217 43.5787C17.6851 41.942 15.6698 41.0871 13.7156 40.2443L13.5569 40.1833C13.5324 40.1711 12.5187 39.7924 12.5187 39.7924C12.3966 39.7436 12.3111 39.7191 12.2622 39.6947L12.079 39.6092L12.0668 39.6337C5.69121 37.3741 1.78281 32.11 1.61182 25.5268C1.5996 25.2581 1.5996 24.9772 1.5996 24.6718C1.5996 23.6825 1.66067 22.6443 1.7706 21.5817C1.85609 20.9588 2.05151 19.481 2.05151 19.4443L2.61334 16.0856C2.67441 15.7436 2.69884 15.5726 2.72327 15.4871L2.77212 15.2795H2.73548C2.77212 14.8153 2.80876 14.2413 2.80876 13.6672C2.80876 11.3466 2.2225 9.88098 0.903421 8.91609H0.891207L0.720215 8.7451L3.56602 5.04434L3.48052 4.93441C3.26067 4.64128 3.12632 4.33594 3.10189 4.01838L3.05304 3.60312L3.45609 3.74968C3.71258 3.83518 3.96907 3.92067 4.23777 3.99396L4.3477 4.0306L7.18128 0.329834L7.31563 0.549681C7.84083 1.44128 8.7935 1.88098 10.2103 1.88098C10.7966 1.88098 11.4561 1.8077 12.3111 1.66113C12.3111 1.66113 15.108 1.23365 15.1324 1.22144C17.0622 1.00159 17.4286 0.952735 17.4897 0.952735L17.6607 0.928307C18.2103 0.879452 18.8088 0.842811 19.4195 0.842811C20.6408 0.842811 21.9599 0.940521 23.3523 1.14815C23.3645 1.14815 25.3309 1.44128 25.3553 1.44128L27.8103 1.85655C28.1767 1.89319 28.5798 1.92983 29.0072 1.92983C30.1065 1.92983 30.8759 1.68556 31.4378 1.16037C31.5599 1.05044 31.6576 0.928307 31.7553 0.80617L32.0362 0.464185L34.6378 3.88403L34.7599 3.83518C35.1874 3.6764 35.7614 3.46877 36.4943 3.20006C36.4943 3.20006 36.8851 3.06571 37.0072 3.01686C37.9599 2.67487 38.7416 2.4306 39.3767 2.29625L39.8775 2.18632L39.6698 2.66266C39.4988 3.06571 39.3401 3.37106 39.1691 3.62754L38.8637 4.10388L39.3889 3.89625C39.4011 3.89625 39.7675 3.74968 40.0851 3.61533L39.7553 4.25044C39.5721 4.59243 38.8882 5.66724 38.253 6.14357L38.1187 6.24128L38.2164 6.38785C38.2164 6.40006 38.2286 6.40006 38.2286 6.41228C38.2897 6.5222 38.3263 6.68098 38.3263 6.86419C38.3263 7.03518 38.2897 7.20617 38.2408 7.32831C38.1675 7.47487 38.0576 7.67029 37.85 7.89014L37.7401 8.00006L38.4362 8.91609L38.3019 9.0138C36.9584 10.0275 36.3111 11.5787 36.3111 13.7772V13.8504C36.3111 13.9604 36.3111 14.0825 36.3111 14.2046C36.3111 14.7176 36.3477 15.2672 36.421 15.8413L36.763 17.9909C37.0072 19.4199 37.1294 20.1649 37.1294 20.2016C37.1904 20.8367 37.3614 22.4611 37.3859 22.5955C37.4714 24.623 37.4714 24.8062 37.4714 24.8184C37.4714 24.9039 37.4714 24.9894 37.4714 25.0749C37.4714 28.6291 36.2744 32.2321 34.3569 34.4672L34.3202 34.5161C33.0744 36.0306 31.3645 38.1191 26.6988 39.768C24.0851 40.7207 21.7523 41.6489 19.7492 43.4321L19.737 43.4443L19.6637 43.5298L19.6027 43.6031L19.4561 43.7619L19.3217 43.5787Z" fill="white"/>
<path d="M37.6908 8.54962C37.6542 8.50076 37.6298 8.47634 37.5931 8.47634C37.6298 8.48855 37.6542 8.50076 37.6908 8.54962ZM39.3275 3.70076C39.4985 3.43206 39.6695 3.10229 39.8405 2.71145L40.1824 1.91756L39.3397 2.10076C38.6924 2.23511 37.9107 2.47939 36.9458 2.82137C36.8115 2.87023 36.6405 2.9313 36.4328 3.00458C35.7733 3.24886 35.1382 3.4687 34.6985 3.63969L32.0359 0.146565L31.6206 0.671756C31.5229 0.793893 31.4374 0.903817 31.3153 1.01374C30.8023 1.50229 30.0695 1.73435 29.0069 1.73435C28.5916 1.73435 28.1885 1.69771 27.8466 1.67328L25.3794 1.25802C25.355 1.25802 23.3763 0.964886 23.3763 0.964886C21.9962 0.757252 20.6649 0.647328 19.4313 0.647328C18.7351 0.647328 18.0756 0.68397 17.4771 0.745038C17.416 0.745038 17.0863 0.793893 15.1076 1.01374C15.071 1.01374 12.2863 1.45344 12.2863 1.45344C11.4435 1.6 10.784 1.67328 10.2221 1.67328C8.86641 1.67328 7.97481 1.27023 7.47405 0.427481L7.20534 0L4.29847 3.79847C4.04198 3.72519 3.79771 3.65191 3.52901 3.5542L2.86947 3.32214L2.94275 4.01832C2.97939 4.38473 3.12595 4.7145 3.35802 5.01985L0.5 8.74504L0.79313 9.03817L0.817557 9.05038C2.08779 9.97863 2.64962 11.3954 2.64962 13.655C2.64962 14.2901 2.60076 14.9374 2.56412 15.426C2.53969 15.5115 2.51527 15.6824 2.4542 16.0366L1.89237 19.4198C1.89237 19.4565 1.70916 20.8366 1.61145 21.5573C1.48931 22.6199 1.44046 23.6702 1.44046 24.6595C1.44046 24.9527 1.44046 25.2458 1.45267 25.5145C1.62366 32.2443 5.64198 37.5939 12.213 39.8534C12.2618 39.8779 12.3473 39.9145 12.4817 39.9511C12.4817 39.9511 13.5076 40.3298 13.5198 40.342L13.6786 40.4031C15.6206 41.2336 17.6237 42.0886 19.2237 43.6886L19.4802 43.945L19.7489 43.6519L19.8099 43.5786C19.8099 43.5786 19.8466 43.5298 19.8832 43.5054C21.8618 41.7466 24.1702 40.8305 26.7718 39.8779C31.4863 38.2168 33.2084 36.116 34.4786 34.5771L34.5153 34.5283C36.4573 32.2565 37.6664 28.6168 37.6664 25.0137C37.6664 24.9282 37.6664 24.8428 37.6664 24.7573C37.6664 24.7573 37.6664 24.745 37.5809 22.5221C37.5809 22.4855 37.4099 20.9344 37.3244 20.116C37.3244 20.116 37.3244 20.1038 36.958 17.9053L36.616 15.7679C36.5428 15.1939 36.5183 14.6565 36.5183 14.1557C36.5183 14.0336 36.5183 13.9237 36.5183 13.8015V13.7282C36.5183 11.5908 37.1534 10.0763 38.4481 9.11145L38.729 8.90382L38.0206 7.96336C38.2405 7.74351 38.3626 7.52366 38.4481 7.35267C38.5824 7.07176 38.6069 6.55878 38.4237 6.27786C38.4237 6.26565 38.4114 6.25344 38.3992 6.25344C39.0588 5.76489 39.755 4.67786 39.9504 4.29924L40.5 3.23664C40.4634 3.24886 39.3397 3.70076 39.3275 3.70076ZM4.90916 3.96947L7.18092 1.02595C7.97481 2.17405 9.29389 2.25954 10.5885 2.3084L11.4557 2.21069L15.1565 1.62443L17.6481 1.34351C20.0542 1.07481 22.4481 1.44122 24.7321 1.77099L28.0176 2.3084C29.4099 2.40611 30.9 2.38168 31.8527 1.3313L32.0359 1.12366L34.1366 3.88397H34.1244C34.0756 3.9084 34.0145 3.93282 33.929 3.96947C33.6603 4.06718 33.355 4.1771 33.0618 4.29924C33.0252 4.31145 32.9886 4.32366 32.9519 4.33588L32.9153 4.32366L31.8527 2.91908C30.7412 3.54199 29.3611 3.6397 28.0298 3.54199L26.1122 3.24886L23.7427 2.85802L21.2145 2.56489C19.7 2.44275 18.1489 2.4916 16.671 2.6626L14.5702 2.95573L11.0771 3.48092C9.73359 3.59084 8.42672 3.43206 7.33969 2.83359L6.25267 4.23817C6.10611 4.21374 5.97176 4.18931 5.82519 4.15267C5.49542 4.0916 5.19008 4.03053 4.90916 3.96947ZM31.4496 10.516C31.413 10.858 31.0221 10.9313 30.8878 11.2122L30.7046 11.3466C30.8756 11.3344 31.0466 11.2366 31.1565 11.0901C31.4374 11.0046 32.3046 10.8214 32.3412 10.9924C32.3779 11.1634 32.3046 11.3221 32.0481 11.5053C31.7916 11.6886 30.8756 12.0794 30.2038 11.9695C29.8252 11.9573 29.471 12.0672 29.1168 12.1405L27.2969 12.6779C26.6618 12.8489 25.929 12.9344 25.245 12.7634C24.2435 12.5802 23.242 12.3115 22.1794 12.3725C22.0573 12.3725 21.8863 12.4702 21.8252 12.6168C21.9351 12.5924 22.1061 12.5435 22.216 12.6168C22.2038 12.7511 22.1794 13.5206 21.8863 13.8015C21.813 13.716 21.7641 13.5695 21.7275 13.4473C21.6908 13.3252 21.2511 11.3954 22.0939 10.7847C22.5947 10.626 23.2542 10.9313 23.4252 11.0168C24.0725 11.371 25.184 11.5542 26.0511 11.8962C26.4298 11.8473 26.7962 11.7252 27.1748 11.6886L29.7763 11.3466C30.2405 11.4321 30.3137 10.8336 30.7168 10.7969C30.9855 10.8092 31.1443 10.6015 31.3641 10.4916C31.3885 10.4427 31.4496 10.455 31.4496 10.516ZM9.99008 11.6886C10.0878 11.6031 10.442 11.5176 10.7595 11.5664C11.0893 11.6153 11.6756 11.7496 12.1153 12.0672C13.0069 12.3603 13.7153 12.9832 14.6313 13.2763C14.6679 13.2031 14.5458 13.1298 14.4969 13.0809C15.0588 12.6534 15.645 12.2504 16.2802 11.9817C16.6832 11.5053 17.2328 11.029 17.8924 11.1267L18.0389 11.1145C18.0389 11.1145 18.0389 11.2733 18.0389 11.3344C18.0145 11.6763 17.8435 12.0305 17.6481 12.4947C17.6481 12.4947 17.0985 12.7023 16.8298 12.8611C16.6099 12.9954 14.7046 14.1069 14.7046 14.1069C14.1672 14.5344 13.8985 14.058 13.3366 13.6794C12.6771 13.3374 12.0053 13.0076 11.4435 12.4702C11.4435 12.3969 11.6145 12.4336 11.529 12.3481C11.2115 12.3847 10.9672 12.4947 10.6863 12.5802C10.5641 12.6412 10.2588 12.7389 10.1611 12.5435L10.2954 12.5069C10.4786 12.3847 10.5397 12.1527 10.8328 12.0794C10.6252 11.8718 10.1977 11.7985 9.90458 11.7863L9.99008 11.6886ZM34.0756 11.8473C34.1 12.0061 33.7702 12.3847 33.3672 12.4824C32.8664 12.5924 32.4634 12.4947 32.1336 12.3115C32.1458 12.6657 32.7443 12.8 33.1718 12.7267C32.9275 13.0565 32.1947 13.2886 31.645 13.2641C31.071 13.2397 30.6802 13.0687 30.1794 12.7511C30.1305 13.0931 30.7779 13.3863 31.242 13.4229C30.3137 13.9359 29.2878 13.5573 29.1534 13.5328C28.8969 13.4595 28.5183 13.313 28.3229 13.1053C28.3107 13.374 28.6771 13.5817 28.9947 13.6672C28.384 13.9481 27.6145 13.6305 27.3092 13.1298C28.3107 12.8366 29.0679 12.5679 30.0817 12.3237C31.0588 12.4824 31.9992 12.0794 32.3656 11.6519C32.5122 11.4809 32.6099 11.2855 32.6099 11.2244C32.7076 11.2 32.8298 11.2244 32.9275 11.2489C33.013 11.2611 33.9901 11.4809 34.0756 11.8473ZM25.758 13.3008C26.2344 13.3618 26.8817 13.2641 27.1137 13.1908C27.2237 13.374 27.0038 13.6916 26.8206 13.6305C26.8939 13.8992 27.1382 14.2412 27.1015 14.5466C26.8695 14.4611 26.1855 14.1924 26.1855 14.1924C26.3565 14.4733 26.5885 14.9618 26.5031 15.316C26.2221 15.1084 25.6359 15.084 25.4038 14.913C25.5137 15.3405 25.7947 15.9389 25.4282 16.342C25.0863 16.0977 24.9153 15.7069 24.6344 15.4382C24.6954 15.8412 24.7809 16.4519 24.5 16.8183C24.329 16.5985 23.5595 16.3053 23.584 16.0366C23.5107 16.0122 23.3031 16.855 23.0466 17.0015C22.7901 16.6473 22.5702 16.1466 22.2282 15.829C22.326 15.7191 22.4481 15.7802 22.3992 15.5969C22.3015 15.3527 21.9351 15.2183 21.5321 15.0595C21.5931 14.9374 21.6298 14.8763 21.7641 14.6931C22.0939 14.229 22.2893 13.8015 22.3626 13.5817C22.4847 13.2153 22.5336 13.0931 22.558 12.8244C22.9733 12.8733 23.2542 12.9466 23.7672 12.9954C24.3046 13.0443 25.074 13.2153 25.758 13.3008ZM17.1595 13.1542C17.0374 13.2886 16.9519 13.3618 16.8908 13.5328C16.7443 13.9115 16.8908 14.4733 17.2817 14.7542C17.5382 14.9374 17.6237 14.9618 17.8313 15.0229C17.3183 15.1573 16.7565 15.8901 16.7565 16.2809C16.5611 16.0977 16.5122 15.7435 16.5611 15.4137C16.4267 15.6092 16.1092 15.7557 15.926 15.7679C15.8649 15.5969 15.8893 15.1695 16.0847 14.974C16.0114 14.8397 15.5718 14.913 15.3641 15.0595C15.3153 14.7908 15.413 14.5832 15.6817 14.4244C15.6084 14.2779 15.4496 14.3878 15.0832 14.4244C15.3153 14.3145 15.6695 14.1191 16.0481 13.887C16.6832 13.4473 17.1595 13.1542 17.1595 13.1542ZM17.4038 23.7557C17.9534 24.6351 18.0023 24.6718 18.3076 25.1847C18.6008 25.6977 19.8466 27.6031 20.0908 27.9939C20.3351 28.3847 21.6053 30.5466 22.4359 30.9618C21.8008 31.658 22.1061 32.513 21.0557 32.684C20.445 32.7817 18.7473 33.3069 18.1611 32.3176C17.5748 31.3405 17.3061 29.7649 17.4893 28.5191C18.2344 29.6794 18.7718 30.1924 19.187 30.4244C17.8191 28.9099 17.9901 28.5924 17.3427 27.774C17.0863 27.4443 17.0252 26.9069 16.9886 26.5038C16.9397 25.8199 16.9519 25.1237 16.9153 24.4275C16.8908 24.0489 16.9153 23.658 16.7931 23.3038C16.7443 23.1695 16.6466 22.7542 16.6221 22.6076C16.5977 22.4611 16.6099 22.2779 16.6099 22.2779C16.6099 22.2779 16.8542 22.8763 17.4038 23.7557ZM21.5321 10.5649C20.958 10.9679 20.8481 11.3466 19.9076 11.8229C19.3824 12.0916 18.8695 12.3115 18.5397 12.1405C18.1977 11.9573 18.3076 11.3344 18.3076 11.2489C18.3076 11.1756 18.3198 11.0779 18.3198 11.029C18.5763 10.9069 18.9427 10.9802 19.0527 10.6626C19.1382 10.3939 19.1137 10.1008 19.1748 9.81985C19.2847 9.58779 19.6145 9.47786 19.6878 9.22138C19.2603 9.50229 18.9183 9.91756 18.3809 9.89313C18.2099 9.84428 18.3321 9.63664 18.2344 9.53893C18.1244 9.50229 18.1244 9.4168 18.1122 9.3313C18.1611 9.3313 18.1855 9.34351 18.1977 9.34351C18.2221 9.34351 18.2466 9.31909 18.2466 9.29466C18.2466 9.27023 18.2221 9.2458 18.1977 9.2458C18.1733 9.2458 18.1122 9.2458 18.0634 9.22138C18.0634 9.22138 18.0634 9.20916 18.0511 9.20916C18.0389 9.12367 18.0878 9.00153 18.0145 8.92825L17.7214 8.91603C17.7458 8.63512 17.929 8.39084 17.9412 8.09771C17.9901 8.14657 18.1489 8.13435 18.0756 8.25649C18.0267 8.30534 18.0389 8.37863 18.0634 8.42748C18.0511 8.29313 18.5275 8.12214 18.271 8.03664C18.1611 8.01221 17.8557 8.0855 17.8313 7.91451C17.8313 7.67023 17.929 7.4626 18.0634 7.26718C18.3443 7.49924 18.7107 7.69466 18.8084 8.07328C18.9061 8.18321 19.0038 8.32977 19.1504 8.32977C19.4557 8.20763 19.6145 8.51298 19.9198 8.50076C19.9198 8.4397 19.9565 8.36641 20.0176 8.34199C20.0908 8.30534 20.1641 8.34199 20.2008 8.40306C20.2374 8.54962 20.1397 8.63512 20.0786 8.72061C19.9687 8.80611 19.8344 8.83054 19.6878 8.85496C19.9321 9.02596 20.1397 8.75725 20.3718 8.69618C20.4817 8.67176 20.5916 8.72061 20.6405 8.83054C20.7382 9.39237 20.4939 10.2107 21.2023 10.4916C21.3122 10.5282 21.4221 10.5282 21.5321 10.5649ZM32.5611 31.1084C32.1092 31.0595 31.7061 31.084 31.5473 31.5115C31.3153 32.0489 31.1931 32.4397 31.0099 32.745C30.7901 33.1115 30.4481 33.429 29.8496 33.6C29.2511 33.771 28.4328 33.8076 28.3229 33.4412C28.4695 32.7206 29.4588 32.6107 29.874 32.4031C30.6557 32.0244 30.729 31.3405 30.7534 30.6321C29.6542 29.9237 27.4313 28.1649 27.4313 28.1649C27.4313 28.1649 29.3611 30.0824 30.387 30.7664C30.387 31.3649 30.2282 31.7069 29.7519 31.9756C29.4344 32.1466 29.0802 32.2809 28.6405 32.5008C27.8832 32.9282 28.1153 33.5389 27.0893 33.9298C26.6618 34.0886 25.6237 34.2351 25.8924 33.6733C26.2832 33.087 25.8679 33.087 25.8679 33.087C25.6359 33.1603 25.0008 33.3313 24.6832 33.3435C24.4878 33.3557 24.2802 33.2092 24.4634 33.0504C24.5244 32.9893 24.6221 32.9405 24.7321 32.8672C24.8908 32.745 24.9763 32.6718 25.0496 32.5496C25.1595 32.3542 25.245 32.0977 25.1229 32.0366C24.9886 31.9511 24.7687 32.0122 24.671 32.1221C24.2435 32.5863 24.2191 33.3802 22.9977 33.1481C22.9977 33.1481 21.5687 32.8183 22.7168 31.2061C23.0466 30.7786 22.1427 30.2657 21.6176 29.6183C20.6038 28.3847 17.7336 23.7191 17.7336 23.7191C17.4405 23.2916 17.1229 22.7664 16.842 22.3511C16.5733 21.9237 16.4756 21.0321 17.1107 21.1176C17.416 21.1786 17.5137 21.313 17.8435 21.1786C18.0878 21.0809 18.0634 21.4351 17.8435 21.6183C17.7092 21.7649 17.7092 22.0336 17.8924 22.1802C18.1366 22.3267 18.1977 22.0458 18.4786 22.1191C18.7595 22.2046 18.955 22.8763 19.4557 23.0229C19.5901 23.0595 19.6756 23.0473 19.7122 22.9618C19.7855 22.7664 19.5534 22.4855 19.6145 22.2412C19.7 22.3878 19.9076 22.5466 20.2008 22.7053C20.5427 22.9008 20.7504 22.9496 20.6527 22.6565C20.555 22.3267 20.4939 22.1069 20.4939 22.1069C20.4573 21.8626 20.6771 21.6672 20.8481 21.6672C20.9458 21.6672 21.0435 21.7527 21.1168 21.8626C21.3366 22.2657 21.2267 22.4855 21.7275 22.6443C22.4725 24.2321 24.4145 26.2718 25.184 26.8947C25.3427 27.029 25.6359 27.1878 25.8557 27.2733C25.6847 27.1023 25.416 26.8702 25.2939 26.7481C23.2664 24.8061 21.984 23.0107 22.0206 22.6199C22.6069 22.3756 22.6924 21.8137 22.8634 21.8992C22.9489 21.9481 22.6802 22.4122 22.729 22.6443C22.7534 22.7786 22.8878 22.9618 23.2542 22.9618C22.5947 23.6214 24.2679 24.171 25.5015 24.1344C25.9534 24.4153 26.7351 24.8794 27.6634 25.0992C27.6634 25.0992 27.7489 25.5511 28.042 25.5634C28.042 25.5634 28.726 26.626 29.6664 27.6275C30.6313 28.6046 31.6939 30.2412 32.5611 31.1084ZM25.3427 29.997C23.3397 27.8595 21.3611 24.6351 21.0924 24.5374C21.0924 24.5374 23.5595 28.2748 23.9992 28.9099C24.4389 29.545 25.0618 30.1435 25.3427 30.6565C25.4282 30.5099 25.5748 30.2412 25.3427 29.997ZM21.7031 10.9313C20.8481 11.7496 21.8618 13.8015 21.2756 14.6443C21.2145 14.7298 21.1412 14.8519 21.1046 14.9374C20.6405 14.7908 20.3595 14.7786 19.9687 14.7664C19.7366 14.7664 19.4557 14.8153 19.2725 14.8397C18.8084 14.8763 18.4664 14.8397 18.0389 14.9252C18.0756 14.8397 18.1244 14.7542 18.2099 14.6321C17.8191 14.6443 17.5137 14.5588 17.2939 14.2779C17.1473 14.0824 17.1229 13.8382 17.1962 13.6427C17.3061 13.3374 17.6359 13.0565 17.7702 12.7756C17.7702 12.7756 18.0023 12.4214 18.0756 11.9939C18.1122 12.1405 18.1855 12.3725 18.5641 12.458C18.9183 12.5435 19.3092 12.4092 19.9443 12.0916C19.6511 12.5557 19.2359 12.8366 18.4664 12.971C18.7351 13.0198 19.2359 12.9221 19.7611 12.6412C20.384 12.3115 21.1779 11.2244 21.1779 11.2244C21.3977 11.0412 21.7763 10.8824 21.7031 10.9313ZM20.7382 13.8137C20.5916 14.0702 20.4206 14.2779 19.871 14.3023C19.1626 14.3389 18.9916 13.9115 18.9916 13.9115C19.0405 14.1313 19.187 14.5832 19.871 14.5588C20.7504 14.5221 20.7382 13.8137 20.7382 13.8137ZM37.8496 8.80611C36.5427 9.85649 36.1397 11.4321 36.0542 11.9206C35.8344 13.313 35.7855 14.8763 36.042 16.2443L36.7382 20.5679L36.9458 22.4611L37.0313 24.6718C37.1779 29.7893 34.7107 36.629 26.3198 39.3893L24.2924 40.171C22.5824 40.9282 20.8969 41.7466 19.4435 43.0657C17.416 41.2458 15.0099 40.2565 12.5916 39.3283C4.88473 36.8855 2.1855 30.3878 2.05115 25.9053C1.97786 24.4031 2.03893 22.7908 2.22214 21.2886L2.53969 19.0046L3.0771 15.9145C3.32137 14.1679 3.33359 12.226 2.74733 10.626C2.46641 9.89313 1.94122 9.23359 1.29389 8.65954C2.00229 7.7313 2.8084 6.64428 3.54122 5.70382C3.55344 5.72825 3.56565 5.75267 3.57786 5.78931C3.57786 5.80153 3.59008 5.81374 3.60229 5.83817C3.72443 6.18015 3.85878 6.43664 3.9687 6.61985C4.01756 6.71756 4.07863 6.82748 4.13969 6.93741L2.91832 8.57405C4.42061 10.2718 4.50611 12.6779 4.43282 14.9496L4.24962 16.3542L3.59008 20.3603L3.33359 22.6443L3.24809 24.745C2.9916 29.8748 6.9 36.4458 14.0817 38.6076C15.9504 39.3649 17.7702 40.2321 19.4435 41.4657C21.1168 40.2443 22.9611 39.3893 24.842 38.6565C33.1595 36.3115 35.6756 29.8992 35.7733 25.6733C35.871 24.1099 35.7244 22.571 35.5657 21.0687L35.2481 18.9435L34.8206 16.2931C34.5641 14.8275 34.613 13.0321 34.8817 11.6031C35.3336 11.4076 35.8099 10.9679 36.1031 10.0397L36.1519 9.90534C36.6405 9.56336 37.2389 9.02596 37.6298 8.48855C37.6664 8.50076 37.7275 8.61069 37.8496 8.80611ZM39.413 2.55267C38.8389 3.87176 38.4725 4.2626 37.5931 4.56794C37.5931 4.56794 34.7351 5.44733 34.0023 5.72825C33.1595 6.05802 32.4878 6.41221 32.0603 6.65649C30.5336 5.72824 27.7366 6.42443 27.0649 6.68092C25.9656 7.09618 24.8542 7.75573 23.9137 8.42748C23.7794 8.29313 23.584 8.07328 23.4374 8.06107C23.4374 8.06107 23.9137 8.3542 23.8282 8.85496C23.9504 8.81832 24.4145 8.46412 24.7321 8.74504C25.0496 9.02596 24.7198 9.36794 24.6099 9.62443C24.9519 9.35573 25.3183 9.14809 25.6969 9.39237C26.1122 9.66107 25.6481 10.1618 25.5015 10.4061C25.8069 10.345 26.1244 10.113 26.3443 10.4305C26.5641 10.7481 26.2344 10.9191 25.9168 11.0901C26.2099 11.0657 26.2344 11.2977 27.0893 11.3588C26.6863 11.3954 26.2832 11.4443 26.0145 11.4687C25.8191 11.4198 25.5992 11.3221 25.2084 11.2122C24.2191 10.9313 23.6328 10.626 23.242 10.5038C22.8511 10.3817 22.3992 10.3328 22.1061 10.4305C21.9473 10.4305 21.9473 10.4916 21.813 10.5038C23.1198 10.0397 22.729 8.46412 23.3519 7.51145C23.987 6.32672 25.3061 6.0458 26.4786 5.82595C28.0053 5.61832 30.3992 5.38626 31.1076 5.2397C32.3901 4.98321 33.9779 4.45802 34.2954 4.31145C34.6863 4.12824 36.4084 3.51756 37.0679 3.27328C37.7275 3.02901 38.6313 2.71145 39.413 2.55267ZM39.5107 4.11603C39.3153 4.61679 38.6679 5.75267 37.9473 6.11908C36.958 6.6687 35.5656 6.90076 34.5031 7.0229C33.6481 7.14504 32.9885 6.98626 32.671 6.88855C32.671 6.88855 32.3534 6.79084 32.2435 6.70534C33.8435 5.85038 35.7855 5.26412 37.8252 4.7145C38.9489 4.32366 39.0954 4.27481 39.5107 4.11603ZM19.4435 5.85038C19.016 5.89924 18.4786 6.00916 18.1611 6.58321C18.0145 6.46107 18.0634 6.21679 18.2344 5.99695C18.3565 5.82595 18.7962 5.65496 19.4435 5.85038ZM37.984 7.18168C37.874 7.40153 37.7275 7.62138 37.4221 7.86565C36.787 8.40305 33.7336 8.84275 32.5611 8.45191C33.7947 7.95115 33.929 7.53588 34.0023 7.21832C34.9305 7.18168 36.3229 7.07176 37.874 6.4C38.0695 6.37557 38.1061 6.96183 37.984 7.18168ZM31.3397 6.50992C31.6939 6.63206 32.2435 6.87634 31.987 6.96183C30.0328 7.2916 28.7626 7.82901 25.3916 9.12366C25.2817 9.12366 25.1351 9.13588 25.0252 9.18473C25.0618 9.01374 25.0496 8.80611 24.8542 8.61069C24.6954 8.45191 24.4389 8.37863 24.0359 8.52519C25.0252 7.87786 26.0267 7.24275 27.1504 6.82748C28.042 6.49771 28.9947 6.33893 30.0206 6.32672C30.6557 6.30229 31.0221 6.41221 31.3397 6.50992ZM21.3244 6.61985C21.3489 6.72977 21.3366 7.01069 21.129 7.12061C20.7504 7.2916 20.5183 6.90076 20.213 6.81527C19.6389 6.72977 18.9427 6.82748 18.3931 6.68092C18.5397 6.47328 18.784 6.24122 19.0893 6.14351C19.4435 6.03359 20.1153 5.88702 20.6038 6.03359C21.0679 6.16794 21.2634 6.42443 21.3244 6.61985ZM21.7885 6.81527C21.7885 6.90076 21.7641 6.93741 21.7153 6.99847C21.6786 7.05954 21.5809 7.15725 21.3977 7.12061C21.3733 6.96183 21.471 6.80305 21.6053 6.70534C21.6786 6.68092 21.7885 6.72977 21.7885 6.81527ZM33.8069 7.27939C33.7458 7.54809 33.355 7.87786 33.0374 8.04886C32.6954 8.24428 32.1947 8.36641 32.0237 8.6229C31.8038 8.81832 29.874 9.38015 28.958 9.6C28.0542 9.83206 27.3092 10.0275 26.4298 10.174C26.271 10.0397 26.0145 10.0519 25.8557 10.0763C26.0756 9.61222 25.9901 9.29466 25.587 9.17252L29.9962 7.58473C30.8145 7.35267 31.8282 7.05954 32.5 7.03512C32.9763 7.15725 33.2817 7.27939 33.8069 7.27939ZM20.3595 7.08397C20.6527 7.16947 21.1656 7.69466 21.3 7.96336C21.3489 8.17099 21.2511 8.37863 21.1168 8.52519C20.9947 8.57405 20.8603 8.7084 20.8237 8.81832C20.8481 8.68397 20.8115 8.56183 20.7382 8.46412C20.616 8.39084 20.4817 8.25649 20.4328 8.10993C19.9687 8.12214 19.2969 8.13435 19.0405 7.90229C19.0405 7.81679 19.0038 7.7313 18.9061 7.62138C19.0527 7.60916 19.5901 7.6458 19.8832 7.65802C20.1763 7.67023 20.5794 7.65802 20.6527 7.78015C20.6527 7.82901 20.6038 7.82901 20.5672 7.84122C20.5305 7.85344 20.4939 7.82901 20.4695 7.85344C20.555 8 20.7382 8.02443 20.8847 7.98779C20.9702 7.93893 21.0191 7.85344 20.958 7.74351C20.8725 7.57252 20.6771 7.54809 20.4206 7.51145C20.1641 7.47481 18.8206 7.45038 18.8206 7.45038C18.674 7.2916 18.3687 7.07176 18.1611 6.97405C18.1366 6.87634 18.2588 6.79084 18.3198 6.82748C18.8817 7.0229 19.7611 7.01069 20.3595 7.08397ZM22.1183 7.15725C22.0939 7.24275 22.155 7.23054 22.2282 7.31603C22.2282 7.48702 22.1183 7.60916 21.984 7.69466C21.8618 7.75573 21.6786 7.80458 21.5565 7.70687C21.4832 7.65802 21.3244 7.62138 21.3244 7.62138C21.3244 7.32825 21.6664 7.19389 21.8863 7.08397C21.984 7.04733 22.0817 7.05954 22.1183 7.15725ZM8.8542 7.38931C10.1366 7.60916 10.0634 8.76947 10.3809 9.25802C9.30611 9.31909 8.82977 9.35573 7.99924 9.16031C5.06794 8.48855 4.51832 7.1084 3.72443 5.25191C5.15344 6.53435 8.25573 7.27939 8.8542 7.38931ZM37.3366 8.15878C36.6893 9.05038 35.5168 9.80764 35.0527 10.0031C34.7229 10.1496 34.2832 10.2473 33.5748 10.0886C33.1962 10.0031 32.8542 9.84428 32.6099 9.64886C32.1336 9.27023 32.158 9.00153 32.1702 8.86718C32.1702 8.76947 32.3412 8.57405 32.5 8.6229C34.2588 9.07481 36.7504 8.53741 37.3366 8.15878ZM21.8863 7.92672C21.9473 7.91451 21.984 7.87786 22.0573 7.89008C22.1305 8.14657 21.8496 8.21985 21.6908 8.2687C21.5687 8.28092 21.5076 8.18321 21.4588 8.09771C21.4588 8.02443 21.4588 7.92672 21.4099 7.86565C21.4099 7.82901 21.4221 7.79237 21.4588 7.76794C21.5565 7.90229 21.7031 7.97557 21.8863 7.92672ZM10.4786 9.45344C10.5641 9.57557 10.7351 9.97863 11.3458 10.4183C11.0038 10.516 10.6374 10.5527 10.1 10.5771C9.37939 10.6137 8.73206 10.5405 8.73206 10.5405C7.66947 10.455 6.31374 9.17252 5.97176 8.67176C6.69237 9.05038 7.64504 9.34351 8.39008 9.44122C9.13511 9.52672 9.85573 9.53893 10.4786 9.45344ZM13.9595 10.3695C13.9473 10.4916 13.9718 10.687 14.2038 10.8336C14.045 10.858 13.7153 10.8458 13.5321 10.9069C12.4206 10.8458 11.2969 10.5038 10.6618 9.44122C10.9427 9.44122 11.1992 9.4168 11.6267 9.51451C12.2252 9.63664 13.1412 9.90534 13.9595 10.3695ZM33.6237 10.3084C33.5748 10.5282 33.1229 10.8702 32.6588 10.9435C32.6466 10.9435 32.5977 10.5893 32.0969 10.6137C31.816 10.6382 31.816 10.6748 31.6206 10.7115C31.7061 10.5893 31.6817 10.4061 31.6084 10.2718C31.584 10.2351 31.5229 10.1863 31.4863 10.1863C31.3519 10.1863 31.2176 10.2351 31.0466 10.3328C30.8756 10.4427 30.7046 10.4061 30.5702 10.4672C30.3382 10.5527 30.1672 10.6992 29.9962 10.9679C29.9473 11.0046 29.874 10.9924 29.7641 10.9802C29.6542 10.9313 27.7733 11.2122 27.7733 11.2122C27.4191 11.1878 26.9305 11.2244 26.3198 11.0412C26.3198 11.0412 26.8328 10.7847 26.5641 10.3328C26.5641 10.3328 29.1046 9.78321 30.1061 9.50229C31.1076 9.22138 31.6573 9.03817 31.987 8.87939C31.926 9.11145 32.158 9.52672 32.5489 9.84428C32.8176 10.0519 33.3916 10.2595 33.6237 10.3084ZM35.7489 9.80764C35.1748 11.6275 33.5626 11.3954 32.9885 11.029C33.587 10.8458 33.8313 10.345 33.8313 10.345C34.6374 10.4183 35.187 10.2595 35.7489 9.80764ZM13.3611 11.0046C13.1168 11.1389 13.1779 11.3344 13.2389 11.4565C13.3122 11.6397 13.5198 11.7252 13.5198 11.7252C13.4099 11.7985 13.2756 11.9328 13.1656 12.0794C12.9092 11.945 12.5427 11.7374 12.2252 11.6397C11.6267 11.2977 11.0649 11.0901 10.4542 11.1267C10.271 11.1389 9.88015 11.2733 9.75802 11.3344C9.34275 11.2611 8.70763 10.9069 8.53664 10.6992C9.30611 10.8092 9.80687 10.7725 10.2466 10.7481C11.0038 10.687 11.5046 10.5649 11.5046 10.5649C12.1397 10.8092 12.5916 11.0168 13.3611 11.0046ZM21.9473 15.6702C21.7519 15.6824 21.874 15.7679 21.4466 16.0977C21.3611 16.1588 21.0435 16.2076 20.7748 16.1832C20.8481 16.0489 20.958 15.9267 20.8115 15.6214C20.6527 15.3038 20.4206 15.2305 20.3107 15.2305C20.4817 15.3649 20.6282 15.5237 20.7015 15.7069C20.7626 15.8534 20.7137 16.0366 20.5794 16.171C20.4328 16.2076 20.274 16.2931 20.1519 16.4031C20.2618 16 19.9076 15.4137 19.6145 15.3282C19.871 15.6702 20.1031 15.9145 19.9565 16.5252C19.871 16.7328 19.0649 17.2824 18.8206 17.087C18.4298 16.745 18.7473 16.4641 18.6008 16.0733C18.5641 16 18.5397 15.9145 18.4908 15.9389C18.6008 16.3176 18.442 16.4763 18.4664 16.8672C18.1977 16.9649 18.0511 17.0137 17.8557 16.9771C17.7702 16.8672 17.6969 16.684 17.758 16.3908C17.8191 16.0977 18.0389 15.7191 18.2832 15.426C18.2832 15.426 18.1611 15.4748 18.0389 15.5725C17.6847 15.8901 17.5137 16.3176 17.5382 16.6229C17.5504 16.7573 17.5626 16.8794 17.6725 16.9771C17.5992 16.9771 17.2328 16.9649 17.1229 16.745C16.9153 16.3176 17.2206 15.9145 17.4527 15.6214C17.6481 15.3893 17.9534 15.2428 17.9534 15.2428C18.442 15.0107 19.1504 15.0962 19.6389 15.0229C20.1275 14.9496 20.5427 15.0229 20.958 15.1573C21.3611 15.2794 21.6298 15.4504 21.9473 15.6702ZM29.4588 24.2443C29.5198 24.5618 29.1046 24.7817 28.7748 24.8305L28.6771 24.8428C28.6893 24.5374 28.6282 23.9634 28.9458 23.9023C29.2634 23.8534 29.3977 24 29.4588 24.2443ZM24.4634 20.7267C25.3672 21.826 26.2099 22.4122 26.3809 22.5344C26.3809 22.5344 25.1473 21.374 24.9031 20.9221C26.9916 22.5466 28.616 23.1817 29.3855 23.7435C29.0924 23.6824 28.7382 23.6458 28.5672 23.8779C28.3962 24.1099 28.5305 24.4763 28.4206 24.8183C28.3595 25.0748 28.1885 25.1237 28.0908 25.1237C27.9321 24.1466 27.1626 24 27.1626 24C27.358 24.2321 27.6023 24.4519 27.6634 24.8061C26.9305 24.684 25.5626 23.8412 25.5626 23.829C24.842 23.8657 23.9626 23.7802 23.5107 23.487C22.9855 23.145 24.0725 23.084 23.6328 22.7298C23.4374 22.571 23.2053 22.742 23.0466 22.4977C22.9366 22.3267 23.3519 21.9603 23.1687 21.6061C23.0588 21.3863 22.8389 21.3863 22.6435 21.5695C22.4481 21.7527 22.3382 22.4611 21.7885 22.3267C21.4588 22.2412 21.5687 21.6916 21.2145 21.4351C20.9824 21.2641 20.6771 21.2641 20.4817 21.4595C20.2496 21.7038 20.2985 22.0336 20.2985 22.0336C19.6389 20.7145 20.274 17.9176 20.274 17.9176C19.5779 19.7374 19.5779 21.3008 20.1153 22.2657C19.9443 22.1802 19.6634 21.9115 19.5901 21.7527C19.4435 21.4107 19.2237 20.9466 19.2725 20.4824C18.8573 21.2153 19.6634 22.5466 19.3458 22.5344C19.0771 22.5344 19.0893 22.0092 18.7595 21.8382C18.4176 21.655 18.2954 21.9603 18.1611 21.8382C18.0023 21.7038 18.7351 21.1908 18.1 20.8366C17.758 20.6412 17.5992 21.0076 17.3305 20.8489C17.0496 20.6901 16.6954 20.7634 16.6954 20.7634C16.5733 20.1282 17.3794 17.2336 17.3794 17.2336C17.8557 17.4779 18.5275 17.087 18.5275 17.087C18.8939 17.771 19.6145 17.2092 19.9321 16.9527C20.1763 16.7573 20.2496 16.5863 20.5305 16.4641C20.8359 16.3298 21.1901 16.5252 21.4954 16.3908C21.8252 16.2443 21.9107 16.0489 21.9107 16.0489C22.3382 16.4275 22.8511 17.7954 23.0588 18.2718C23.7427 19.8229 24.4634 20.7267 24.4634 20.7267ZM17.9046 10.6748C17.1962 10.5649 16.5855 10.8824 16.0359 11.6031C15.3275 11.8229 14.8878 12.0916 14.3382 12.6534C13.9473 12.5191 13.4954 12.2748 13.3611 12.1893C13.4466 11.9817 13.5931 11.8229 13.7886 11.7374C13.6053 11.6275 13.3 11.4687 13.3489 11.2733C13.4588 10.8947 13.9473 11.1145 14.4969 10.8947C14.2771 10.7847 14.0206 10.626 14.1305 10.3084C14.2405 9.99084 14.7168 10.0397 15.1076 10.1374C14.8878 9.92977 14.8511 9.57557 15.071 9.42901C15.3031 9.28244 15.8038 9.3313 15.8038 9.3313C15.816 9.0626 16.0114 8.87939 16.158 8.65954C15.926 8.7084 15.7916 9.00153 15.7183 9.18473C14.9977 9.12366 14.6802 9.47786 14.8389 9.92977C14.4969 9.85649 14.1427 9.91756 14.0084 10.2107C13.129 9.6855 11.8221 9.31909 10.8939 9.25802C10.7595 9.2458 10.6985 9.25802 10.5763 9.23359C10.4786 9.12366 10.3809 8.84275 10.3443 8.72061C10.2466 8.32977 10.0511 7.76794 9.63588 7.57252C10.4908 7.68244 12.787 8.13435 14.2282 8.73283C13.1779 7.95115 10.3198 7.56031 8.5855 7.15725C7.27863 6.85191 5.50763 6.29008 4.4084 5.5084C3.7855 5.0687 3.41908 4.55573 3.35802 3.98168C4.15191 4.2626 4.82366 4.40916 5.72748 4.59237C6.33817 4.7145 6.83893 4.8 7.71832 4.98321C8.53664 5.1542 9.72137 5.5084 9.72137 5.5084C11.5656 6.0458 13.642 5.6916 15.4618 6.3145C16.2802 6.63206 16.2435 7.62137 16.3534 8.37863L16.5489 8.57405C16.5489 9.62443 17.0618 10.0519 17.9046 10.6748ZM23.8038 20.6779C24.6832 21.7771 24.7443 21.7771 25.5137 22.5466C25.0985 22.3389 24.1947 21.5084 23.7061 20.8977C22.9489 19.9695 22.6069 19.1511 22.4725 18.284C22.4725 18.284 22.9244 19.5786 23.8038 20.6779ZM14.2771 7.24275C13.2145 6.68092 11.7 6.72977 10.8328 6.49771C9.96565 6.26565 9.84351 6.21679 9.84351 6.21679C10.1855 6.27786 10.5031 6.37557 10.8695 6.42443C12.0298 6.57099 13.3122 6.63206 14.2893 7.03512C14.8389 7.26718 15.1321 7.82901 15.2664 8.41527C15.0466 7.96336 14.7168 7.47481 14.2771 7.24275Z" fill="black"/>
<path d="M7.10775 17.1603L6.24058 16.8549L6.69248 17.6977L5.87416 18.2717L6.79019 18.4794L6.71691 19.4198L7.47416 18.7847L8.18256 19.4198L8.13371 18.4427L9.09859 18.3572L8.29248 17.7343L8.75661 16.9038L7.81615 17.1847L7.46195 16.2809L7.10775 17.1603Z" fill="white"/>
<path d="M12.6529 18.5893L11.7857 18.2962L12.2376 19.1267L11.4193 19.6886L12.372 19.8962L12.2742 20.8489L13.0193 20.2138L13.7399 20.8489L13.6788 19.8718L14.6437 19.7863L13.8498 19.1756L14.3017 18.3328L13.3613 18.5893L13.0193 17.7099L12.6529 18.5893Z" fill="white"/>
<path d="M6.43593 23.3649L6.77792 24.2443L7.73059 23.9878L7.27868 24.8061L8.07257 25.429L7.10769 25.5023L7.15654 26.5038L6.44814 25.8565L5.69089 26.5038L5.76418 25.5511L4.84814 25.3435L5.65425 24.7817L5.21456 23.9633L6.08173 24.2443L6.43593 23.3649Z" fill="white"/>
<path d="M12.9948 23.7801L13.2757 24.5984H14.1307L13.4345 25.1236L13.7032 25.9664L12.9948 25.4656L12.2986 25.9664L12.5429 25.1236L11.8589 24.6107L12.6895 24.5984L12.9948 23.7801Z" fill="white"/>
<path d="M12.6161 30.4122L11.749 30.119L12.1887 30.9496L11.3703 31.5114L12.2986 31.7191L12.2253 32.6595L12.9703 32.0122L13.6909 32.6717L13.6177 31.7068L14.5948 31.5969L13.8009 30.974L14.2528 30.1557L13.3123 30.4244L12.9703 29.5206L12.6161 30.4122Z" fill="white"/>
<path d="M10.9548 12.8489C10.6739 12.8489 10.2464 13.2397 10.0998 13.3863C10.6617 13.1909 10.8815 13.3008 11.0036 13.1298C11.0159 13.0443 11.0281 12.9099 10.9548 12.8489Z" fill="white"/>
<path d="M11.309 13.0076C11.2357 13.3618 11.48 13.716 11.7731 13.887L11.822 13.6183C11.7731 13.3618 11.5044 13.1175 11.309 13.0076Z" fill="white"/>
<path d="M11.1503 13.6794C11.1259 13.7771 11.0281 13.9114 11.0526 14.0214C11.0892 14.2168 11.4068 14.3023 11.5045 14.5954C11.6755 14.3145 11.4556 13.7649 11.1503 13.6794Z" fill="white"/>
<path d="M10.9304 14.2779L10.7961 14.5222C10.564 14.8764 10.9915 15.1451 10.9793 15.3772C11.1014 15.2428 11.248 14.8764 11.1747 14.6199C11.1258 14.4733 11.0525 14.3634 10.9304 14.2779Z" fill="white"/>
<path d="M10.0754 14.3267C9.9288 14.3878 9.55018 14.6321 9.36697 14.6076C9.46468 14.7298 9.86773 14.7053 10.0143 14.7176C10.2708 14.7298 10.4418 14.4489 10.5761 14.2412L10.0754 14.3267Z" fill="white"/>
<path d="M10.4784 14.9374C9.97761 15.0596 10.2952 15.6458 9.86769 15.9878C10.1608 15.939 10.283 15.9268 10.4662 15.5848C10.5517 15.426 10.5883 15.1084 10.4784 14.9374Z" fill="white"/>
<path d="M6.57017 13.826C6.47246 14.2046 6.55796 14.2901 6.74117 14.5344C6.65567 13.997 7.29079 13.7649 6.99766 13.3374C6.79002 13.3863 6.61903 13.6428 6.57017 13.826Z" fill="white"/>
<path d="M8.69524 15.3038C8.71967 15.426 9.196 15.3893 9.41585 15.3038C9.52577 15.2794 9.9044 15.1328 9.94104 14.9985C9.07387 14.8031 9.37921 15.1206 8.69524 15.3038Z" fill="white"/>
<path d="M9.72126 14.058C9.7579 14.1679 10.222 14.058 10.4297 13.9237C10.5274 13.8748 10.8693 13.6672 10.8938 13.5328C10.0022 13.4962 10.3564 13.7527 9.72126 14.058Z" fill="white"/>
<path d="M6.85102 12.8978C6.72888 12.8367 6.37468 13.0199 6.27697 13.081C6.05713 13.1787 5.71514 13.5207 5.78842 13.6184C6.3869 13.2398 6.41133 13.6794 6.85102 12.8978Z" fill="white"/>
<path d="M8.03561 11.3954C8.34095 11.4809 8.4753 11.6519 8.67072 11.6886C8.90279 11.7008 8.98828 11.6275 9.03714 11.542C8.93943 11.2366 8.34095 11.2733 8.03561 11.3954Z" fill="white"/>
<path d="M9.42804 12.7267C9.40361 12.4092 9.52575 12.226 9.48911 12.0305C9.41583 11.8107 9.33033 11.7496 9.23262 11.7374C8.97614 11.9206 9.20819 12.4702 9.42804 12.7267Z" fill="white"/>
<path d="M7.99904 11.6397C7.74255 11.5542 7.31507 11.7252 7.1685 11.8595C7.48606 11.8229 7.69369 12.1893 8.07232 12.0305L8.31659 11.8962C8.24331 11.774 8.12117 11.6885 7.99904 11.6397Z" fill="white"/>
<path d="M8.48778 12.2748C8.40229 12.5313 8.5977 12.9588 8.73205 13.0931C8.69541 12.7756 9.03739 12.5557 8.87862 12.1771L8.74427 11.9328C8.60992 12.0183 8.52442 12.1405 8.48778 12.2748Z" fill="white"/>
<path d="M9.74555 15.5603L9.46464 15.5725C9.04937 15.6335 9.06158 16.0366 8.76845 16.1832C8.95166 16.2198 9.41578 16.1465 9.58678 15.9511C9.68448 15.8534 9.74555 15.719 9.74555 15.5603Z" fill="white"/>
<path d="M6.92424 12.1771C6.54561 12.3115 6.5334 12.4336 6.43569 12.7146C6.83874 12.3359 7.37615 12.739 7.57157 12.2626C7.41279 12.1283 7.10745 12.1283 6.92424 12.1771Z" fill="white"/>
<path d="M7.79125 12.91C7.82789 13.3008 7.93781 13.3619 8.18209 13.5206C7.9256 13.0443 8.45079 12.6168 8.03552 12.3115C7.86453 12.4214 7.77904 12.7267 7.79125 12.91Z" fill="white"/>
<path d="M7.32729 12.8733C7.30286 13.4107 7.31508 13.826 7.54714 14.0824C7.6937 13.6427 7.70591 13.4473 7.58378 13.1786C7.54714 13.0687 7.43721 12.8611 7.32729 12.8733Z" fill="white"/>
</svg>
