<?xml version="1.0" encoding="utf-8"?>
<!-- Generator: Adobe Illustrator 17.1.0, SVG Export Plug-In . SVG Version: 6.00 Build 0)  -->
<!DOCTYPE svg PUBLIC "-//W3C//DTD SVG 1.1//EN" "http://www.w3.org/Graphics/SVG/1.1/DTD/svg11.dtd" [
	<!ENTITY ns_flows "http://ns.adobe.com/Flows/1.0/">
	<!ENTITY ns_extend "http://ns.adobe.com/Extensibility/1.0/">
	<!ENTITY ns_ai "http://ns.adobe.com/AdobeIllustrator/10.0/">
	<!ENTITY ns_graphs "http://ns.adobe.com/Graphs/1.0/">
]>
<svg version="1.1" id="Layer_1" xmlns:x="&ns_extend;" xmlns:i="&ns_ai;" xmlns:graph="&ns_graphs;"
	 xmlns="http://www.w3.org/2000/svg" xmlns:xlink="http://www.w3.org/1999/xlink" xmlns:a="http://ns.adobe.com/AdobeSVGViewerExtensions/3.0/"
	 x="0px" y="0px" viewBox="-0.8 296.3 1280 423.3" enable-background="new -0.8 296.3 1280 423.3" xml:space="preserve">
<path fill="#070809" d="M630.5,297.3c6.2,0,12.4,0,18.6,0c2.7,0.3,5.4,0.6,8.1,0.8c117.4,11.2,201.7,111.3,192.2,228.3
	c-7.2,87.8-70.2,163-155.5,185.5c-14.8,3.9-30,5.9-45.2,7.2c-5.9,0-11.8,0-17.7,0c-2.9-0.3-5.7-0.6-8.6-0.8
	c-114.9-10-200.5-110-192.2-225c6.4-88.7,67.1-163.5,152.6-187.9C598.5,300.9,614.4,298.7,630.5,297.3z M580.3,483
	c-0.1,3.1,0.5,6.2,2.1,8.8c5.3,8.3,10.7,16.5,17.7,23.5c11.5,11.4,24.5,20.7,36.8,30.9c2,1.6,3.9,2,5.8,0.1
	c9.4-9.3,21-15.5,30.5-24.8c8.1-7.9,15.2-16.3,21.9-25.4c3.6-4.9,5.4-10.3,4.3-16.4c-0.7-4-1.6-8-1.8-12c-0.3-5.9-0.8-12,3.1-17
	c3.3-4.4,7.6-0.5,11.4-0.4c8.8,0.3,13.7-3.9,13.2-10.7c-1.5-20.6-14.5-35.8-24-52.7c-2-3.5-5.6-4.1-9.4-1.7
	c-11.7,7.3-23.4,14.4-35.2,21.7c-3.9,2.4-7.9,3.2-12.2,1.2c-2.8-1.2-6.1-1.3-8.9-0.1c-4.8,2.1-9,1.1-13.1-1.4
	c-11.1-6.9-22.2-13.4-33.1-20.5c-5.8-3.8-9.7-2-12.7,3.3c-5,8.5-10.1,16.8-14.7,25.4c-3.7,6.8-6,14-7,21.7
	c-1.4,10.3,5.4,15.9,15.6,13.3c7.6-2,10,0,11.4,7.8C583.4,466.3,580.8,474.6,580.3,483z M466.8,526.7c0,15.2,1.7,30.3,7.4,44.4
	c14.8,37.2,41,64.9,73.9,86.7c3.6,2.4,7.4,2.7,11.7,1.7c8.7-2.2,12.9-9.6,18.6-15.3c16.7-16.8,12.1-50.1,3-65.3
	c-0.6-1-1.3-2.6-2.9-1.7c-1.4,0.8-1.8,2.3-1.2,3.8c0.9,2.8,2,5.5,2.9,8.4c0.3,0.9,0.7,2.3-0.6,2.7c-0.5,0.2-1.5-0.9-2.1-1.5
	c-5.5-6-9.3-13.8-17.6-16.6c-4.5-1.5-9.4-2.1-11,3.8c-1.9,7.3-2,14.3,4.1,20.4c7.8,7.9,13.2,17.1,15.8,27.9c0.2,0.8,0.2,2.1-0.2,2.4
	c-1.1,0.6-1.4-0.7-1.9-1.3c-2.8-3.8-6-7.2-9.7-10.3c-10.2-8.5-22.2-13.6-33.9-19.5c-8.2-4.2-10.3-8.2-9.6-17.2
	c1.4-16.9-2.3-32.3-16.4-43.2c-3.8-2.9-5.8-5.5-4.3-10.4c1.5-5,4.5-7.5,9.7-6.6c3.3,0.5,6.6,1.1,9.8,2c6.1,1.9,9.3-0.2,9.5-6.7
	c0.3-17.7-8.7-30.4-23.3-38.5c-6.7-3.7-6-7.1-2.9-11.9c6.4-9.9,12.9-19.7,19.5-29.5c1.5-2.2,3.2-4.4,1.8-7.2c-1.5-3-4.4-3.7-7.4-3.5
	c-8.1,0.4-13.1,5.4-17.6,11.6C472.7,463.5,469.1,494.9,466.8,526.7z M813.2,527.9c-0.4-6.1-0.3-12.2-1.1-18.3
	c-3.7-25.9-7.9-51.6-24.3-73.3c-3.9-5.2-8-9.8-14.5-11.2c-3.7-0.8-7.6-0.9-10,2.6c-2.3,3.4,0.3,5.9,2.1,8.6
	c6.7,10.1,13.3,20.2,19.8,30.5c2.4,3.8,2.5,6.6-2.7,9.4c-15.3,8.5-24.9,21.1-24.4,39.6c0.2,6.1,3.4,8.3,9.1,6.4
	c2.7-0.9,5.5-1.7,8.4-2c4.8-0.6,9.2-0.3,11.2,5.5c1.8,5.3,0.2,8.4-4.3,11.7c-12.8,9.6-17.1,23.6-16.4,38.5
	c0.7,14-0.3,17.1-12.9,23.3c-14.9,7.4-30.5,14.1-40.4,28.7c-0.2,0.4-0.9,0.5-1.4,0.7c-0.1-0.8-0.4-1.7-0.2-2.4
	c2.5-10.2,7.6-19,14.7-26.7c4-4.3,7-8.8,6.1-15.1c-0.5-3.8,0.4-8.3-3.8-10.5c-4.2-2.2-8.3-0.4-11.9,1.9c-6.1,3.7-9.4,10.1-14,15.1
	c-0.5,0.5-1.2,0.8-1.8,1.2c-0.2-0.7-0.7-1.5-0.5-2.2c0.7-2.5,1.5-5,2.4-7.5c0.8-2,1.5-4.2-0.9-5.2c-2.1-0.9-2.9,1.5-3.4,2.8
	c-12.5,28.6-11.5,53.1,13.7,75.1c7.6,6.6,15.2,6.7,23.5,0.6c12.5-9.3,25.1-18.6,35.6-30.3C795.9,597.7,813.8,567,813.2,527.9z
	 M644.1,335.4c-28.5-0.5-48,11.8-67.5,24.1c-1.4,0.9-2.4,2.3-3.4,3.7c-0.7,0.9-1,2.1-1.5,3.1c1.5,0.6,2.1-0.9,3-1.4
	c12.7-7.4,25.7-14.1,40.6-6.5c16.5,8.6,32.9,8.8,49.4,0c3.1-1.7,6.5-2.5,10-3c10.3-1.6,18.5,3.4,27.3,7.3c2.3,1,3.7,3.7,6.6,3.6
	c-0.8-3.2-3.2-5.3-5.5-7.3c-8.8-7.4-19.8-10.7-29.7-16.1C662.8,337.1,651.6,335.1,644.1,335.4z M604,668.8c-2,0.2-3,0.2-4.1,0.3
	c0.8,0.7,1.6,1.5,2.4,2.2c0.5,0.4,1.1,0.7,1.6,1c11.4,6.2,24.5,6.9,36.2,11.9c0.3,0.1,0.8,0,1.1-0.2c5-3.2,10.9-3.6,16.3-5.2
	c7.3-2.1,14.6-4,21-8.4c0.5-0.3,0.9-0.9,1.3-1.3c-0.6-0.1-1.2-0.2-1.8-0.2c-7.3,0-13.5-1.7-18.1-8.2c-3.8-5.3-8.3-10.2-12.4-15.1
	c-4.7-5.5-10.3-5.6-15-0.1c-2.2,2.6-4.1,5.6-6.4,8.1C619.7,660.7,614.9,670.4,604,668.8z"/>
<path fill="#070809" d="M1058.5,297.3c6.6,0,13,0,19.6,0c4.6,0.5,9.2,0.9,13.7,1.4c101.5,10.2,183.4,97.6,186.9,199.8
	c0,6.6,0,13.1,0,19.6c-0.1,2.8-0.2,5.6-0.4,8.4c-7.5,88.4-70.2,163-156,185.7c-14.6,3.9-29.7,5.8-44.7,7.1c-6.2,0-12.4,0-18.6,0
	c-2.9-0.3-5.7-0.6-8.6-0.8c-114.9-10-200.5-110-192.2-225c6.4-88.7,67.1-163.5,152.6-187.9C1026.6,300.9,1042.4,298.7,1058.5,297.3z
	 M1024.3,358c-4.2-0.1-6.8,0.8-9.1,2.2c-9,5.6-18,11-26.1,18c-13.2,11.6-17.2,29.6-0.2,42.8c16.3,12.7,20.3,35.8,6.3,50.3
	c-0.6,0.6-0.9,2.1-0.6,2.8c10.1,22.4,0.6,43.3-5.5,64.3c-1.3,4.5-3.8,8.9-9.9,8.9c-2.2,0-1.3,1.9-0.7,3.1c9.5,19,25.6,30.5,44.6,38
	c8.5,3.4,15.7,7.5,20.5,15.3c3.3,5.6,7.3,10.9,9.6,16.7c2.9,7.2,11.1,6.5,14.9,11.7c0.1,0.1,0.6,0.1,0.7,0
	c4.6-5.2,12.4-5.6,15.8-13.3c6.7-14.9,16.3-26.2,33.6-32.4c16.9-6.1,31.8-17.8,39.9-35.5c0.6-1.2,2.1-3.5-0.3-3.6
	c-7.1-0.3-9.1-5.6-10.7-10.7c-3.2-10.3-5.8-20.7-8.3-31.2c-1.8-7.4-1.7-15,0.7-22.2c2.2-6.6,2.5-11.5-1.8-18.1
	c-9.2-14.3-4.7-31.8,10.6-44.4c14.7-12.2,13.9-26.7,3.2-38.8c-9-10.1-20.6-16.7-32.4-23c-4.2-2.2-8.4-1.5-11.9,1.9
	c-3.4,3.2-6.7,6.6-9.2,10.7c-3.8,6.4-7.1,13.2-11.8,18.9c-4.8,5.8-11,10.4-15.1,16.8c-1.2,1.9-3.4,3.4-4.9,0.8
	c-6.2-10.4-17.7-16.2-22.4-27.9c-1.9-4.7-5.3-9-8.5-12.9C1032.2,363.2,1028.9,358.7,1024.3,358z M1224.9,547
	c-0.3-3.7-0.5-7.5-1-11.2c-0.9-6.8-4.9-8.4-10.6-4.4c-7.8,5.5-8.9,13.9-9.5,22.3c-1.2,15.4-0.8,31.2-8.3,45.4
	c-7.3,14-17.2,26.2-28.8,37c-7.1,6.7-14.6,12.4-25.5,8.1c-2.9-1.2-6-0.3-8.8,1.2c-10.6,5.9-21.3,11.6-31.8,17.6
	c-7.5,4.4-13.7,10-16.6,18.6c-2.5,7.6-8.4,11.2-16.1,11.2c-7.7,0-13.1-3.8-15.9-11.2c-2.1-5.6-5-10.5-10-13.9
	c-12.6-9-26.4-15.9-40.1-23.1c-2.6-1.3-5.6-1.3-8.2-0.2c-7.5,3.4-13.7,0.5-19.2-4c-14.5-11.9-26.4-26.3-34.8-43.2
	c-6.8-13.8-6.1-29.1-7.4-43.9c-0.8-8.6-2-17.1-10.3-22.3c-5-3.1-8.9-1.7-9.6,4c-0.9,6.9-2.3,13.9-0.2,20.8
	c2.2,7.6,7.6,13.6,11.1,20.6c10.3,20.3,19.6,41.1,38.4,55.7c13.3,10.4,25.1,23,41.6,28.7c7.6,2.6,14.3,6.2,20.3,11.4
	c8.4,7.3,17.3,13.6,26.8,19.2c11.5,6.8,23.5,6.9,35,0.1c9.4-5.6,18.3-11.8,26.6-19c4.8-4.2,10.1-7.8,16.1-10.1
	c27.6-10.4,48.3-29.6,66-52.1c10.8-13.7,15.8-31.1,25.4-45.7C1223.2,559.3,1225.7,553.6,1224.9,547z M977.5,447.5
	c-0.3-2.4-0.6-4.9-1-7.3c-0.1-0.6-0.5-1.1-0.8-1.6c0,0.5-0.1,1.1-0.1,1.6c-0.2,6.5-0.2,13-2.6,19.3c-0.3,0.7-1,1.4-1.6,1.8
	c-0.2,0.1-1.3-0.7-1.5-1.2c-1.7-5.9-4.9-11.3-4.8-17.6c0.1-5.8-2.9-9.8-7.9-12.4c-1-0.5-2.2-1.5-3.2-0.3c-0.9,1.1,0.2,2.1,0.8,2.9
	c1.1,1.4,1.8,2.8,0.9,4.6c-5.3,10.6-14.5,16.5-25,20.6c-3.4,1.3-5.5,3-7.1,6c-2.5,4.5-2.8,9.3-2.2,14.1c0.3,2-0.4,3.3-2.4,3.7
	c-1.1,0.2-2.7-0.4-2.9,1.3c-0.2,1.6,1,2.8,2.4,3.3c3.3,1,6.8,1.6,10.2,2.6c5.5,1.8,10.9,5.8,9.5,11.2c-2.2,8.5,2.9,4.7,5.4,4.1
	c2.8-0.6,5.9-1.8,7.8-3.8C965.6,485.4,979.6,470.4,977.5,447.5z M1160.3,458.9c0,3.3,0.9,6.4,2.1,9.5c4.1,10.9,11.9,19.1,18.8,28
	c3.4,4.3,7.8,7,13,8.3c1.7,0.4,3.6,1,5-0.5c1.3-1.5-0.8-2.4-0.8-3.6c-0.1-1.2,0.1-2.6,0.6-3.7c2.3-4.5,5.7-7.5,10.9-8.5
	c3.1-0.6,6.2-1.5,9.1-2.6c0.8-0.3,1.2-1.9,1.7-2.9c0.1-0.2-0.8-1.1-1.3-1.1c-4.1,0.1-4.2-2.2-3.8-5.4c0.9-6.9-3.1-16.7-7.1-17.9
	c-7.3-2-14.1-5.3-19.1-10.8c-4-4.4-12.3-8.3-6.4-16.8c0.2-0.3-0.1-1.3-0.4-1.4c-0.6-0.2-1.5-0.3-2,0c-4.6,2.3-8.5,5.4-8.6,10.9
	c-0.1,6.8-2.6,12.7-4.7,18.9c-0.3,0.8-1,1.9-1.7,2c-1.3,0.2-1.6-1.1-1.9-2.1c-2.3-6.4-2.1-13.1-2.4-19.8c0-0.4,0-0.8,0-1.3
	c-0.2,0.4-0.5,0.8-0.6,1.2C1159,445.9,1160.1,452.3,1160.3,458.9z"/>
<path fill="#070809" d="M1278.8,498.4c0.1,0,0.3,0,0.4,0c0,6.6,0,13,0,19.6c-0.1,0-0.3,0-0.4,0
	C1278.8,511.5,1278.8,504.9,1278.8,498.4z"/>
<g>
	<path fill="#070809" d="M220.9,719.7c-6.5,0-13,0-19.4,0c-0.4-0.1-0.8-0.2-1.2-0.2c-9.8-0.4-19.5-1.6-29.1-3.5
		C123.8,706.6,84,684,52,647.9c-22-24.8-37.2-53.4-45.7-85.3c-3.2-12.1-5.4-24.3-6.4-36.8c-0.2-2.8-0.5-5.6-0.7-8.3
		c0-6.3,0-12.6,0-19c0.2-1.7,0.4-3.4,0.5-5.1c0.7-10.7,2.2-21.2,4.6-31.6c10.6-46.4,34.1-85,70.3-115.8
		c22.6-19.2,48.4-32.9,76.9-41.2c13.6-4,27.5-6.6,41.7-7.8c2.8-0.2,5.6-0.5,8.3-0.7c6.5,0,13,0,19.4,0c0.4,0.1,0.8,0.2,1.2,0.2
		c9.8,0.4,19.5,1.6,29.1,3.5c47.4,9.4,87.1,32,119.2,68.1c22,24.8,37.1,53.4,45.7,85.3c3.2,12.1,5.4,24.3,6.4,36.8
		c0.2,2.8,0.5,5.6,0.7,8.3c0,6.3,0,12.6,0,19c-0.2,1.7-0.4,3.4-0.5,5.1c-0.7,10.7-2.2,21.2-4.6,31.6c-10.6,46.4-34.1,85-70.3,115.8
		c-22.6,19.2-48.4,32.9-76.9,41.2c-13.6,4-27.5,6.6-41.7,7.8C226.4,719.2,223.6,719.5,220.9,719.7z M248.6,458.2
		c0.1-2.1,0-4.2-0.5-6.2c-1.3-6.2-4.6-11.3-9.7-15c-2.8-2-5.8-4-9.4-2.8c-6.4,2.2-11.5,6.1-13.3,13.1c-0.8,3-2,5.8-4.1,8.1
		c-0.4,0.5-0.7,0.7-1.2,0.1c-1.8-2.1-3.3-4.3-3.8-7.1c-1.2-6-5-9.9-10.1-12.8c-2.8-1.6-5.6-2.3-8.7-1c-3.9,1.7-7.2,4.2-9.6,7.7
		c-2.4,3.6-4.5,7.4-4.7,12c-0.2,3.5,0,6.9,0.2,10.4c0.1,3.7,0.4,7.5,0.7,11.2c0.4,5.5,0.7,10.9,0.1,16.4c-0.6,6.1-1.6,12-2.8,18
		c-2.7,13.5-6.1,26.7-11.6,39.3c-2.4,5.5-4,11.5-9.1,15.3c-1.9,1.5-3.5,3.4-5.6,4.6c-0.4,0.2-1.1,0.3-1.1,0.8c0,0.6,0.7,0.7,1.1,0.9
		c8.7,3.7,14.1,10.9,18.8,18.6c4,6.5,5.1,13.8,5.8,21.2c0.6,6.7,0.9,13.4,0,20.1c-0.7,4.9-1.4,9.8-3.3,14.4
		c-2.7,6.3-5.6,12.4-10.7,17.1c-2.5,2.3-5,4.5-7.5,6.7c-0.2,0.2-0.7,0.5-0.4,0.9c0.2,0.3,0.6,0,0.9,0c4.9-1.1,9.9-1.6,14.9-1.3
		c5.2,0.4,10.3,1.9,15.1,4.3c10.3,5.1,17.9,13.1,24.7,22c2.6,3.4,4.7,7.2,6.5,11.2c0.2,0.4,0.3,1.2,0.8,1.2c0.5,0,0.6-0.8,0.8-1.2
		c0.6-1.2,1.2-2.5,1.8-3.8c2.2-4.1,5.1-7.8,8-11.4c4.8-6.2,10.5-11.3,17-15.5c7.2-4.7,15.2-6.9,23.7-6.8c3.1,0,6.2,0.7,9.4,1.1
		c0.7,0.1,1.9,0.7,2.1,0.2c0.3-0.8-0.8-1.3-1.4-1.8c-2.9-2.7-6.2-5.1-8.8-8.2c-7.7-9.4-11.3-20.5-12.1-32.4
		c-0.5-7.5-0.2-15.1,1.1-22.5c1.2-6.9,3.2-13.4,7.4-19.1c3.1-4.2,6.2-8.6,10.6-11.6c2-1.3,4.2-2.4,6.2-3.6c0.4-0.2,1.5-0.6,0.4-1.2
		c-1.4-0.7-2.6-1.8-3.7-2.8c-1.9-1.7-4.2-3.1-5.7-5.3c-3.2-4.7-5.1-10-7.2-15.2c-6.2-15.3-9.7-31.4-12.3-47.6
		c-1.4-8.5-1.3-17.1-0.6-25.6C248,468.4,248.3,463.3,248.6,458.2z M119.3,401.5c-0.1,1.5,0.1,2.9,0.3,4.3c0.7,5.9,2.8,11.3,7,15.6
		c5.1,5.2,11.6,7,18.6,7.3c4.8,0.2,9.6-0.8,14.1-2.8c6.4-2.7,12.7-5.5,19-8.4c5.1-2.3,9.7-2.1,14.5-0.1c7.4,3.1,13.3,8.1,17.4,15.1
		c0.3,0.5,0.6,0.9,0.9,1.4c0.2-0.5,0.5-0.9,0.7-1.4c4.1-7.1,10.1-12.2,17.7-15.2c3.2-1.3,6.8-2.6,10.2-1.2c5.9,2.4,12,4.3,17.7,7.3
		c7.9,4.1,16.2,6.4,25.2,4.5c5.4-1.2,10.4-3.3,13.9-7.8c5.2-6.6,6.8-14.1,6-22.4c-0.6-5.8-2.5-11-7-15c-5.5-4.9-11.7-8.1-19.2-8
		c-3.9,0-7.8,0.6-11.5,2c-2,0.8-3.7-0.4-3.9-2.5c-0.7-5.3-3-9.8-6.8-13.4c-5.7-5.4-12.4-9.5-19.5-12.8c-3.5-1.6-6.9-2.6-10.7-1.4
		c-2,0.6-4.1,0.8-6.1,0.7c-3-0.1-6.1-0.3-9.1-0.2c-3.7,0.2-7.4,0.4-11-0.6c-2.9-0.8-5.6-0.5-8.4,0.6c-7.6,3.1-14.5,7.4-20.6,12.8
		c-4,3.5-6.8,7.9-7.5,13.4c-0.4,2.9-2,4.3-5.1,3.1c-4.3-1.7-8.9-2.1-13.5-1.6c-7.5,0.8-13.5,4.6-18.4,10.2
		C120.3,389.9,119.6,395.7,119.3,401.5z M266.8,634.6c0.1,2,0,4.3,0.2,6.5c0.9,7.8,3.7,14.8,9.2,20.4c5.3,5.4,11.3,8.8,19.3,7
		c10-2.2,18.2-7,23.9-15.8c4.4-6.7,6.8-14.2,8.3-22c0.4-2.2,2.2-3.1,4.1-1.8c1.9,1.2,3.9,1.6,6,0.7c1.5-0.6,3-1.3,4.4-2.1
		c6.9-3.8,11.6-9.3,13.8-17c2.2-7.8,2.7-15.7,2.1-23.8c-0.8-10.8-11.2-20.1-22.1-19.3c-5.6,0.4-10.2,3-13.5,7.6
		c-2,2.8-3,6.1-3.5,9.6c-0.3,1.9-1.9,2.9-3.2,2.1c-4.5-3-9.4-4-14.9-3.5c-10.8,1-18.9,6.1-24.6,15.1
		C269.4,609.2,266.8,621.4,266.8,634.6z M155.3,634.7c0-3.4-0.2-6.3-0.4-9.3c-0.8-8.8-3.3-17-7.6-24.7c-3.8-6.7-8.8-12.1-16-15.2
		c-3.4-1.4-6.9-2.1-10.5-2.5c-5-0.6-9.6,0.4-13.8,3.1c-2,1.3-3.5,0.7-3.9-1.7c-0.9-5.5-3-10.5-7.8-13.7c-4-2.7-8.5-4-13.5-3.4
		c-2.1,0.3-4,1.4-5.8,2.4c-7.5,3.9-11.9,10-12.2,18.6c-0.2,6.3,0.1,12.5,1.4,18.8c2.3,10.9,8.6,18.2,18.8,22.4
		c2.2,0.9,4.3,0.8,6.4-0.6c1.9-1.2,3.6-0.4,4.1,1.9c0.6,2.7,1.2,5.5,2,8.1c3.8,12.6,10.6,22.8,23.6,27.7c5.3,2,10.8,3.5,16.4,1.5
		c5.1-1.9,9.1-5.4,12.3-9.8C153.8,651.2,155.7,643.1,155.3,634.7z M38.3,535.3c0,3.8,0.5,7.6,1.6,11.2c1.3,4.4,4.3,7.5,7.6,10.4
		c4.8,4.3,10.4,6.7,17,5.4c14.4-2.8,26.7-9.4,36.4-20.5c4.8-5.4,8.6-11.5,11.5-18.1c4.8-10.5,8.6-21.5,12.7-32.3
		c4.2-10.9,6.5-22,6.3-33.7c-0.1-6-1.6-11.5-4.7-16.6c-0.4-0.6-0.6-1.8-1.3-1.7c-0.6,0.1,0,1.2,0,1.8c0.8,9.6-1.7,18.6-5.8,27.2
		c-3,6.3-6.9,11.9-11.6,17.1c-2.3,2.6-4.6,5.2-7.3,7.4c-4.6,3.8-10.3,5.8-15.3,8.9c-3.3,2-6.9,3-10.7,3.6c-4.6,0.7-9.2,1.1-13.8,1.7
		c-4.5,0.7-9.1,1.8-12.4,5.1C42.2,518.6,38.5,526.2,38.3,535.3z M384,535.3c0.2-5.8-1.8-11-4.7-15.9c-2.5-4.3-5.5-8.1-10.3-10.1
		c-5.4-2.3-11.2-2.7-16.9-3.3c-5.6-0.6-11.1-1.7-16.1-4.6c-4.2-2.4-8.7-4.5-12.7-7.2c-4.9-3.3-8.6-8.1-12.4-12.6
		c-6.9-8.3-11.1-18-13.6-28.5c-1-4.2-0.5-8.6-0.4-12.9c0-0.3,0.1-0.7-0.1-0.9c-0.2-0.2-0.4,0.1-0.5,0.3c-1.6,3.2-3.8,6.1-4.6,9.7
		c-0.9,4.1-1.1,8.2-1,12.3c0.1,5.2,0.9,10.3,1.9,15.4c1.4,7,4.1,13.5,6.6,20.1c4,10.8,7.8,21.6,13.2,31.8
		c3.9,7.3,8.9,13.9,15.2,19.2c7.5,6.3,16.1,10.8,25.7,13.1c3.7,0.9,7.4,1.9,11.2,1c7.2-1.7,12.4-6.3,16.2-12.4
		C383.6,545.5,383.8,540.4,384,535.3z M102.6,370.7c0-2-0.1-4.1-0.8-6c-0.7-2.1-2.7-2.6-4.3-1.2c-4.1,3.5-7.6,7.5-10.9,11.8
		c-9.8,12.7-17.4,26.5-22.2,41.8c-1.2,3.8-2.3,7.6-3.5,11.4c-0.3,0.9,0,1.7,0.8,2.2c0.6,0.4,1.3,0.5,1.9-0.1
		c5.8-5,11.8-9.8,16.7-15.7c8.2-10,15.2-20.7,20.9-32.2c0.5-0.9,0.8-1.9,0.9-3C102.2,376.7,102.4,373.7,102.6,370.7z M323,362.6
		c-1.6,0.3-2.5,1.2-2.8,2.8c-1.1,4.6-0.2,9.2-0.1,13.8c0,2,1.1,3.7,1.9,5.5c2.7,5.7,6.1,10.9,9.5,16.2c4.6,7,9.4,13.8,15.5,19.6
		c3.6,3.5,7.4,6.8,11.3,10c0.7,0.6,1.3,0.9,2.1,0.4c0.9-0.5,1.1-1.3,0.8-2.3c-4.1-14.1-8.8-27.9-16.8-40.4
		c-5.3-8.3-10.9-16.3-18.1-23.1C325.4,364,324.4,362.9,323,362.6z M71,477.8c0-4.3-1.3-10-3.2-15.5c-1.8-5-5-9-9.2-12.1
		c-2.1-1.5-3.9-1.5-6.1,0c-2.8,2-4.8,4.7-5.9,7.9c-2,5.8-2.4,11.8-1.9,17.9c0.3,4.4,2.4,7.7,5.9,10.4c4.2,3.2,8.9,5.2,13.7,7.3
		c2.9,1.3,5,0.3,5.6-2.8C70.4,487.1,71,483.3,71,477.8z M351.3,478.1c0.1,5.3,0.6,9.4,1.5,13.5c0.5,2.3,2.5,3.4,4.6,2.5
		c4.3-1.9,8.6-3.7,12.6-6.3c5.6-3.5,8.2-8.4,7.9-14.9c-0.1-3.2-0.2-6.5-0.8-9.6c-0.8-4.6-2.5-8.8-6.1-12c-2.7-2.5-5.3-2.7-8.2-0.4
		c-2.3,1.9-4.3,4.1-5.9,6.6C352.9,464.1,351.9,471.6,351.3,478.1z"/>
</g>
</svg>
