<?xml version="1.0" encoding="utf-8"?>
<!-- Generator: Adobe Illustrator 17.1.0, SVG Export Plug-In . SVG Version: 6.00 Build 0)  -->
<!DOCTYPE svg PUBLIC "-//W3C//DTD SVG 1.1//EN" "http://www.w3.org/Graphics/SVG/1.1/DTD/svg11.dtd">
<svg version="1.1" id="Layer_1" xmlns="http://www.w3.org/2000/svg" xmlns:xlink="http://www.w3.org/1999/xlink" x="0px" y="0px"
	 viewBox="-0.9 885.8 612.1 202.5" enable-background="new -0.9 885.8 612.1 202.5" xml:space="preserve">
<path fill="#010102" d="M301,886.4h8.9c1.3,0.1,2.6,0.3,3.9,0.4c56.1,5.4,96.4,53.2,91.9,109.2c-3.4,42-33.6,77.9-74.3,88.7
	c-7.1,1.9-14.3,2.8-21.6,3.4h-8.5c-1.4-0.1-2.7-0.3-4.1-0.4c-54.9-4.8-95.9-52.6-91.9-107.6c3.1-42.4,32.1-78.2,73-89.8
	C285.7,888.1,293.3,887.1,301,886.4L301,886.4z M277,975.2c0,1.5,0.2,3,1,4.2c2.5,4,5.1,7.9,8.5,11.2c5.5,5.5,11.7,9.9,17.6,14.8
	c1,0.8,1.9,1,2.8,0c4.5-4.4,10-7.4,14.6-11.9c3.9-3.8,7.3-7.8,10.5-12.1c1.7-2.3,2.6-4.9,2.1-7.8c-0.3-1.9-0.8-3.8-0.9-5.7
	c-0.1-2.8-0.4-5.7,1.5-8.1c1.6-2.1,3.6-0.2,5.5-0.2c4.2,0.1,6.6-1.9,6.3-5.1c-0.7-9.8-6.9-17.1-11.5-25.2c-1-1.7-2.7-2-4.5-0.8
	c-5.6,3.5-11.2,6.9-16.8,10.4c-1.9,1.1-3.8,1.5-5.8,0.6c-1.3-0.6-2.9-0.6-4.3,0c-2.3,1-4.3,0.5-6.3-0.7c-5.3-3.3-10.6-6.4-15.8-9.8
	c-2.8-1.8-4.6-1-6.1,1.6c-2.4,4.1-4.8,8-7,12.1c-1.8,3.3-2.9,6.7-3.3,10.4c-0.7,4.9,2.6,7.6,7.5,6.4c3.6-1,4.8,0,5.5,3.7
	C278.5,967.2,277.3,971.2,277,975.2L277,975.2z M222.8,996.1c0,7.3,0.8,14.5,3.5,21.2c7.1,17.8,19.6,31,35.3,41.5
	c1.7,1.1,3.5,1.3,5.6,0.8c4.2-1.1,6.2-4.6,8.9-7.3c8-8,5.8-24,1.4-31.2c-0.3-0.5-0.6-1.2-1.4-0.8c-0.7,0.4-0.9,1.1-0.6,1.8
	c0.4,1.3,1,2.6,1.4,4c0.1,0.4,0.3,1.1-0.3,1.3c-0.2,0.1-0.7-0.4-1-0.7c-2.6-2.9-4.4-6.6-8.4-7.9c-2.2-0.7-4.5-1-5.3,1.8
	c-0.9,3.5-1,6.8,2,9.8c3.7,3.8,6.3,8.2,7.6,13.3c0.1,0.4,0.1,1-0.1,1.1c-0.5,0.3-0.7-0.3-0.9-0.6c-1.3-1.8-2.9-3.4-4.6-4.9
	c-4.9-4.1-10.6-6.5-16.2-9.3c-3.9-2-4.9-3.9-4.6-8.2c0.7-8.1-1.1-15.4-7.8-20.7c-1.8-1.4-2.8-2.6-2.1-5s2.2-3.6,4.6-3.2
	c1.6,0.2,3.2,0.5,4.7,1c2.9,0.9,4.4-0.1,4.5-3.2c0.1-8.5-4.2-14.5-11.1-18.4c-3.2-1.8-2.9-3.4-1.4-5.7l9.3-14.1
	c0.7-1.1,1.5-2.1,0.9-3.4c-0.7-1.4-2.1-1.8-3.5-1.7c-3.9,0.2-6.3,2.6-8.4,5.5C225.6,965.8,223.9,980.9,222.8,996.1L222.8,996.1z
	 M388.4,996.6c-0.2-2.9-0.1-5.8-0.5-8.7c-1.8-12.4-3.8-24.7-11.6-35c-1.9-2.5-3.8-4.7-6.9-5.4c-1.8-0.4-3.6-0.4-4.8,1.2
	c-1.1,1.6,0.1,2.8,1,4.1c3.2,4.8,6.4,9.7,9.5,14.6c1.1,1.8,1.2,3.2-1.3,4.5c-7.3,4.1-11.9,10.1-11.7,18.9c0.1,2.9,1.6,4,4.4,3.1
	c1.3-0.4,2.6-0.8,4-1c2.3-0.3,4.4-0.1,5.4,2.6c0.9,2.5,0.1,4-2.1,5.6c-6.1,4.6-8.2,11.3-7.8,18.4c0.3,6.7-0.1,8.2-6.2,11.1
	c-7.1,3.5-14.6,6.7-19.3,13.7c-0.1,0.2-0.4,0.2-0.7,0.3c0-0.4-0.2-0.8-0.1-1.1c1.2-4.9,3.6-9.1,7-12.8c1.9-2.1,3.3-4.2,2.9-7.2
	c-0.2-1.8,0.2-4-1.8-5c-2-1.1-4-0.2-5.7,0.9c-2.9,1.8-4.5,4.8-6.7,7.2c-0.2,0.2-0.6,0.4-0.9,0.6c-0.1-0.3-0.3-0.7-0.2-1.1
	c0.3-1.2,0.7-2.4,1.1-3.6c0.4-1,0.7-2-0.4-2.5c-1-0.4-1.4,0.7-1.6,1.3c-6,13.7-5.5,25.4,6.6,35.9c3.6,3.2,7.3,3.2,11.2,0.3
	c6-4.4,12-8.9,17-14.5C380.1,1030,388.7,1015.3,388.4,996.6L388.4,996.6z M307.5,904.6c-13.6-0.2-23,5.6-32.3,11.5
	c-0.7,0.4-1.1,1.1-1.6,1.8c-0.3,0.4-0.5,1-0.7,1.5c0.7,0.3,1-0.4,1.4-0.7c6.1-3.5,12.3-6.7,19.4-3.1c7.9,4.1,15.7,4.2,23.6,0
	c1.5-0.8,3.1-1.2,4.8-1.4c4.9-0.8,8.8,1.6,13.1,3.5c1.1,0.5,1.8,1.8,3.2,1.7c-0.4-1.5-1.5-2.5-2.6-3.5c-4.2-3.5-9.5-5.1-14.2-7.7
	C316.5,905.4,311.1,904.5,307.5,904.6L307.5,904.6z M288.4,1064c-1,0.1-1.4,0.1-2,0.1c0.4,0.3,0.8,0.7,1.1,1.1
	c0.2,0.2,0.5,0.3,0.8,0.5c5.5,3,11.7,3.3,17.3,5.7c0.1,0,0.4,0,0.5-0.1c2.4-1.5,5.2-1.7,7.8-2.5c3.5-1,7-1.9,10-4
	c0.2-0.1,0.4-0.4,0.6-0.6c-0.3,0-0.6-0.1-0.9-0.1c-3.5,0-6.5-0.8-8.7-3.9c-1.8-2.5-4-4.9-5.9-7.2c-2.2-2.6-4.9-2.7-7.2,0
	c-1.1,1.2-2,2.7-3.1,3.9C295.9,1060.1,293.6,1064.8,288.4,1064L288.4,1064z"/>
<path fill="#010102" d="M505.7,886.4h9.4c2.2,0.2,4.4,0.4,6.6,0.7c48.5,4.9,87.7,46.7,89.4,95.5v9.4c0,1.3-0.1,2.7-0.2,4
	c-3.6,42.3-33.6,77.9-74.6,88.8c-7,1.9-14.2,2.8-21.4,3.4H506c-1.4-0.1-2.7-0.3-4.1-0.4C447,1083,406,1035.2,410,980.2
	c3.1-42.4,32.1-78.2,73-89.8C490.4,888.1,498,887.1,505.7,886.4L505.7,886.4z M489.3,915.4c-2,0-3.3,0.4-4.4,1.1
	c-4.3,2.7-8.6,5.3-12.5,8.6c-6.3,5.5-8.2,14.2-0.1,20.5c7.8,6.1,9.7,17.1,3,24c-0.3,0.3-0.4,1-0.3,1.3c4.8,10.7,0.3,20.7-2.6,30.7
	c-0.6,2.2-1.8,4.3-4.7,4.3c-1.1,0-0.6,0.9-0.3,1.5c4.5,9.1,12.2,14.6,21.3,18.2c4.1,1.6,7.5,3.6,9.8,7.3c1.6,2.7,3.5,5.2,4.6,8
	c1.4,3.4,5.3,3.1,7.1,5.6h0.3c2.2-2.5,5.9-2.7,7.6-6.4c3.2-7.1,7.8-12.5,16.1-15.5c8.1-2.9,15.2-8.5,19.1-17c0.3-0.6,1-1.7-0.1-1.7
	c-3.4-0.1-4.4-2.7-5.1-5.1c-1.5-4.9-2.8-9.9-4-14.9c-0.9-3.5-0.8-7.2,0.3-10.6c1.1-3.2,1.2-5.5-0.9-8.7c-4.4-6.8-2.2-15.2,5.1-21.2
	c7-5.8,6.6-12.8,1.5-18.6c-4.3-4.8-9.8-8-15.5-11c-2-1.1-4-0.7-5.7,0.9c-1.6,1.5-3.2,3.2-4.4,5.1c-1.8,3.1-3.4,6.3-5.6,9
	c-2.3,2.8-5.3,5-7.2,8c-0.6,0.9-1.6,1.6-2.3,0.4c-3-5-8.5-7.7-10.7-13.3c-0.9-2.2-2.5-4.3-4.1-6.2
	C493.1,917.9,491.5,915.7,489.3,915.4L489.3,915.4z M585.2,1005.8c-0.1-1.8-0.2-3.6-0.5-5.4c-0.4-3.3-2.3-4-5.1-2.1
	c-3.7,2.6-4.3,6.6-4.5,10.7c-0.6,7.4-0.4,14.9-4,21.7c-3.5,6.7-8.2,12.5-13.8,17.7c-3.4,3.2-7,5.9-12.2,3.9
	c-1.4-0.6-2.9-0.1-4.2,0.6c-5.1,2.8-10.2,5.5-15.2,8.4c-3.6,2.1-6.6,4.8-7.9,8.9c-1.2,3.6-4,5.4-7.7,5.4s-6.3-1.8-7.6-5.4
	c-1-2.7-2.4-5-4.8-6.6c-6-4.3-12.6-7.6-19.2-11c-1.2-0.6-2.7-0.6-3.9-0.1c-3.6,1.6-6.6,0.2-9.2-1.9c-6.9-5.7-12.6-12.6-16.6-20.7
	c-3.3-6.6-2.9-13.9-3.5-21c-0.4-4.1-1-8.2-4.9-10.7c-2.4-1.5-4.3-0.8-4.6,1.9c-0.4,3.3-1.1,6.6-0.1,9.9c1.1,3.6,3.6,6.5,5.3,9.8
	c4.9,9.7,9.4,19.7,18.4,26.6c6.4,5,12,11,19.9,13.7c3.6,1.2,6.8,3,9.7,5.5c4,3.5,8.3,6.5,12.8,9.2c5.5,3.3,11.2,3.3,16.7,0
	c4.5-2.7,8.7-5.6,12.7-9.1c2.3-2,4.8-3.7,7.7-4.8c13.2-5,23.1-14.2,31.6-24.9c5.2-6.6,7.6-14.9,12.1-21.9
	C584.4,1011.7,585.6,1008.9,585.2,1005.8L585.2,1005.8z M466.9,958.2c-0.1-1.1-0.3-2.3-0.5-3.5c0-0.3-0.2-0.5-0.4-0.8v0.8
	c-0.1,3.1-0.1,6.2-1.2,9.2c-0.1,0.3-0.5,0.7-0.8,0.9c-0.1,0-0.6-0.3-0.7-0.6c-0.8-2.8-2.3-5.4-2.3-8.4c0-2.8-1.4-4.7-3.8-5.9
	c-0.5-0.2-1.1-0.7-1.5-0.1c-0.4,0.5,0.1,1,0.4,1.4c0.5,0.7,0.9,1.3,0.4,2.2c-2.5,5.1-6.9,7.9-12,9.8c-1.6,0.6-2.6,1.4-3.4,2.9
	c-1.2,2.2-1.3,4.4-1.1,6.7c0.1,1-0.2,1.6-1.1,1.8c-0.5,0.1-1.3-0.2-1.4,0.6s0.5,1.3,1.1,1.6c1.6,0.5,3.3,0.8,4.9,1.2
	c2.6,0.9,5.2,2.8,4.5,5.4c-1.1,4.1,1.4,2.2,2.6,2c1.3-0.3,2.8-0.9,3.7-1.8C461.3,976.3,468,969.1,466.9,958.2L466.9,958.2z
	 M554.4,963.6c0,1.6,0.4,3.1,1,4.5c2,5.2,5.7,9.1,9,13.4c1.6,2.1,3.7,3.3,6.2,4c0.8,0.2,1.7,0.5,2.4-0.2c0.6-0.7-0.4-1.1-0.4-1.7
	s0-1.2,0.3-1.8c1.1-2.2,2.7-3.6,5.2-4.1c1.5-0.3,3-0.7,4.4-1.2c0.4-0.1,0.6-0.9,0.8-1.4c0-0.1-0.4-0.5-0.6-0.5c-2,0-2-1.1-1.8-2.6
	c0.4-3.3-1.5-8-3.4-8.6c-3.5-1-6.7-2.5-9.1-5.2c-1.9-2.1-5.9-4-3.1-8c0.1-0.1,0-0.6-0.2-0.7c-0.3-0.1-0.7-0.1-1,0
	c-2.2,1.1-4.1,2.6-4.1,5.2c0,3.3-1.2,6.1-2.2,9c-0.1,0.4-0.5,0.9-0.8,1c-0.6,0.1-0.8-0.5-0.9-1c-1.1-3.1-1-6.3-1.1-9.5v-0.6
	l-0.3,0.6C553.7,957.4,554.3,960.5,554.4,963.6L554.4,963.6z"/>
<path fill="#010102" d="M611,982.5h0.2v9.4H611V982.5z"/>
<path fill="#010102" d="M105.2,1088.3h-9.3c-0.2,0-0.4-0.1-0.6-0.1c-4.7-0.2-9.3-0.8-13.9-1.7c-22.7-4.5-41.7-15.3-57-32.6
	c-10.5-11.9-17.8-25.5-21.9-40.8c-1.5-5.8-2.6-11.6-3.1-17.6c-0.1-1.3-0.2-2.7-0.3-4v-9.1c0.1-0.8,0.2-1.6,0.2-2.4
	c0.3-5.1,1.1-10.1,2.2-15.1c5.1-22.2,16.3-40.6,33.6-55.4c10.8-9.2,23.1-15.7,36.8-19.7c6.5-1.9,13.1-3.2,19.9-3.7
	c1.3-0.1,2.7-0.2,4-0.3h9.3c0.2,0,0.4,0.1,0.6,0.1c4.7,0.2,9.3,0.8,13.9,1.7c22.7,4.5,41.6,15.3,57,32.6
	c10.5,11.9,17.7,25.5,21.9,40.8c1.5,5.8,2.6,11.6,3.1,17.6c0.1,1.3,0.2,2.7,0.3,4v9.1c-0.1,0.8-0.2,1.6-0.2,2.4
	c-0.3,5.1-1.1,10.1-2.2,15.1c-5.1,22.2-16.3,40.6-33.6,55.4c-10.8,9.2-23.1,15.7-36.8,19.7c-6.5,1.9-13.1,3.2-19.9,3.7
	C107.8,1088.1,106.5,1088.2,105.2,1088.3L105.2,1088.3z M118.4,963.3c0-1,0-2-0.2-3c-0.6-3-2.2-5.4-4.6-7.2c-1.3-1-2.8-1.9-4.5-1.3
	c-3.1,1.1-5.5,2.9-6.4,6.3c-0.4,1.4-1,2.8-2,3.9c-0.2,0.2-0.3,0.3-0.6,0c-0.9-1-1.6-2.1-1.8-3.4c-0.6-2.9-2.4-4.7-4.8-6.1
	c-1.3-0.8-2.7-1.1-4.2-0.5c-1.9,0.8-3.4,2-4.6,3.7c-1.1,1.7-2.2,3.5-2.2,5.7c-0.1,1.7,0,3.3,0.1,5c0,1.8,0.2,3.6,0.3,5.4
	c0.2,2.6,0.3,5.2,0,7.8c-0.3,2.9-0.8,5.7-1.3,8.6c-1.3,6.5-2.9,12.8-5.5,18.8c-1.1,2.6-1.9,5.5-4.4,7.3c-0.9,0.7-1.7,1.6-2.7,2.2
	c-0.2,0.1-0.5,0.1-0.5,0.4s0.3,0.3,0.5,0.4c4.2,1.8,6.7,5.2,9,8.9c1.9,3.1,2.4,6.6,2.8,10.1c0.3,3.2,0.4,6.4,0,9.6
	c-0.3,2.3-0.7,4.7-1.6,6.9c-1.3,3-2.7,5.9-5.1,8.2c-1.2,1.1-2.4,2.2-3.6,3.2c-0.1,0.1-0.3,0.2-0.2,0.4c0.1,0.1,0.3,0,0.4,0
	c2.3-0.5,4.7-0.8,7.1-0.6c2.5,0.2,4.9,0.9,7.2,2.1c4.9,2.4,8.6,6.3,11.8,10.5c1.2,1.6,2.2,3.4,3.1,5.4c0.1,0.2,0.1,0.6,0.4,0.6
	c0.2,0,0.3-0.4,0.4-0.6l0.9-1.8c1.1-2,2.4-3.7,3.8-5.5c2.3-3,5-5.4,8.1-7.4c3.4-2.2,7.3-3.3,11.3-3.3c1.5,0,3,0.3,4.5,0.5
	c0.3,0,0.9,0.3,1,0.1c0.1-0.4-0.4-0.6-0.7-0.9c-1.4-1.3-3-2.4-4.2-3.9c-3.7-4.5-5.4-9.8-5.8-15.5c-0.2-3.6-0.1-7.2,0.5-10.8
	c0.6-3.3,1.5-6.4,3.5-9.1c1.5-2,3-4.1,5.1-5.5c1-0.6,2-1.1,3-1.7c0.2-0.1,0.7-0.3,0.2-0.6c-0.7-0.3-1.2-0.9-1.8-1.3
	c-0.9-0.8-2-1.5-2.7-2.5c-1.5-2.2-2.4-4.8-3.4-7.3c-3-7.3-4.6-15-5.9-22.8c-0.7-4.1-0.6-8.2-0.3-12.2
	C118.2,968.2,118.3,965.8,118.4,963.3L118.4,963.3z M56.6,936.2c0,0.7,0,1.4,0.1,2.1c0.3,2.8,1.3,5.4,3.3,7.5
	c2.4,2.5,5.5,3.3,8.9,3.5c2.3,0.1,4.6-0.4,6.7-1.3c3.1-1.3,6.1-2.6,9.1-4c2.4-1.1,4.6-1,6.9,0c3.5,1.5,6.4,3.9,8.3,7.2
	c0.1,0.2,0.3,0.4,0.4,0.7c0.1-0.2,0.2-0.4,0.3-0.7c2-3.4,4.8-5.8,8.5-7.3c1.5-0.6,3.3-1.2,4.9-0.6c2.8,1.1,5.7,2.1,8.5,3.5
	c3.8,2,7.7,3.1,12,2.2c2.6-0.6,5-1.6,6.6-3.7c2.5-3.2,3.3-6.7,2.9-10.7c-0.3-2.8-1.2-5.3-3.3-7.2c-2.6-2.3-5.6-3.9-9.2-3.8
	c-1.9,0-3.7,0.3-5.5,1c-1,0.4-1.8-0.2-1.9-1.2c-0.3-2.5-1.4-4.7-3.3-6.4c-2.7-2.6-5.9-4.5-9.3-6.1c-1.7-0.8-3.3-1.2-5.1-0.7
	c-1,0.3-2,0.4-2.9,0.3c-1.4,0-2.9-0.1-4.4-0.1c-1.8,0.1-3.5,0.2-5.3-0.3c-1.4-0.4-2.7-0.2-4,0.3c-3.6,1.5-6.9,3.5-9.8,6.1
	c-1.9,1.7-3.3,3.8-3.6,6.4c-0.2,1.4-1,2.1-2.4,1.5c-2.1-0.8-4.3-1-6.5-0.8c-3.6,0.4-6.5,2.2-8.8,4.9
	C57.1,930.7,56.8,933.4,56.6,936.2L56.6,936.2z M127.1,1047.7c0,1,0,2.1,0.1,3.1c0.4,3.7,1.8,7.1,4.4,9.8c2.5,2.6,5.4,4.2,9.2,3.3
	c4.8-1.1,8.7-3.3,11.4-7.6c2.1-3.2,3.3-6.8,4-10.5c0.2-1.1,1.1-1.5,2-0.9c0.9,0.6,1.9,0.8,2.9,0.3c0.7-0.3,1.4-0.6,2.1-1
	c3.3-1.8,5.5-4.4,6.6-8.1s1.3-7.5,1-11.4c-0.4-5.2-5.4-9.6-10.6-9.2c-2.7,0.2-4.9,1.4-6.5,3.6c-1,1.3-1.4,2.9-1.7,4.6
	c-0.1,0.9-0.9,1.4-1.5,1c-2.2-1.4-4.5-1.9-7.1-1.7c-5.2,0.5-9,2.9-11.8,7.2C128.4,1035.5,127.1,1041.3,127.1,1047.7L127.1,1047.7z
	 M73.8,1047.7c0-1.6-0.1-3-0.2-4.4c-0.4-4.2-1.6-8.1-3.6-11.8c-1.8-3.2-4.2-5.8-7.7-7.3c-1.6-0.7-3.3-1-5-1.2
	c-2.4-0.3-4.6,0.2-6.6,1.5c-1,0.6-1.7,0.3-1.9-0.8c-0.4-2.6-1.4-5-3.7-6.6c-1.9-1.3-4.1-1.9-6.5-1.6c-1,0.1-1.9,0.7-2.8,1.1
	c-3.6,1.9-5.7,4.8-5.8,8.9c-0.1,3,0,6,0.7,9c1.1,5.2,4.1,8.7,9,10.7c1.1,0.4,2.1,0.4,3.1-0.3c0.9-0.6,1.7-0.2,2,0.9
	c0.3,1.3,0.6,2.6,1,3.9c1.8,6,5.1,10.9,11.3,13.2c2.5,1,5.2,1.7,7.8,0.7c2.4-0.9,4.4-2.6,5.9-4.7C73.1,1055.6,74,1051.7,73.8,1047.7
	L73.8,1047.7z M17.9,1000.2c0,1.8,0.2,3.6,0.8,5.4c0.6,2.1,2.1,3.6,3.6,5c2.3,2.1,5,3.2,8.1,2.6c6.9-1.3,12.8-4.5,17.4-9.8
	c2.3-2.6,4.1-5.5,5.5-8.7c2.3-5,4.1-10.3,6.1-15.4c2-5.2,3.1-10.5,3-16.1c0-2.9-0.8-5.5-2.2-7.9c-0.2-0.3-0.3-0.9-0.6-0.8
	c-0.3,0,0,0.6,0,0.9c0.4,4.6-0.8,8.9-2.8,13c-1.4,3-3.3,5.7-5.5,8.2c-1.1,1.2-2.2,2.5-3.5,3.5c-2.2,1.8-4.9,2.8-7.3,4.3
	c-1.6,1-3.3,1.4-5.1,1.7c-2.2,0.3-4.4,0.5-6.6,0.8s-4.4,0.9-5.9,2.4C19.8,992.2,18,995.8,17.9,1000.2L17.9,1000.2z M183.2,1000.2
	c0.1-2.8-0.9-5.3-2.2-7.6c-1.2-2.1-2.6-3.9-4.9-4.8c-2.6-1.1-5.4-1.3-8.1-1.6s-5.3-0.8-7.7-2.2c-2-1.1-4.2-2.2-6.1-3.4
	c-2.3-1.6-4.1-3.9-5.9-6c-3.3-4-5.3-8.6-6.5-13.6c-0.5-2-0.2-4.1-0.2-6.2v-0.4c-0.1-0.1-0.2,0-0.2,0.1c-0.8,1.5-1.8,2.9-2.2,4.6
	c-0.4,2-0.5,3.9-0.5,5.9c0,2.5,0.4,4.9,0.9,7.4c0.7,3.3,2,6.5,3.2,9.6c1.9,5.2,3.7,10.3,6.3,15.2c1.9,3.5,4.3,6.6,7.3,9.2
	c3.6,3,7.7,5.2,12.3,6.3c1.8,0.4,3.5,0.9,5.4,0.5c3.4-0.8,5.9-3,7.7-5.9C183,1005.1,183.1,1002.6,183.2,1000.2z M48.6,921.5
	c0-1,0-2-0.4-2.9c-0.3-1-1.3-1.2-2.1-0.6c-2,1.7-3.6,3.6-5.2,5.6c-4.7,6.1-8.3,12.7-10.6,20c-0.6,1.8-1.1,3.6-1.7,5.5
	c-0.1,0.4,0,0.8,0.4,1.1c0.3,0.2,0.6,0.2,0.9,0c2.8-2.4,5.6-4.7,8-7.5c3.9-4.8,7.3-9.9,10-15.4c0.2-0.4,0.4-0.9,0.4-1.4
	C48.4,924.3,48.5,922.9,48.6,921.5L48.6,921.5z M154,917.6c-0.8,0.1-1.2,0.6-1.3,1.3c-0.5,2.2-0.1,4.4,0,6.6c0,1,0.5,1.8,0.9,2.6
	c1.3,2.7,2.9,5.2,4.5,7.7c2.2,3.3,4.5,6.6,7.4,9.4c1.7,1.7,3.5,3.3,5.4,4.8c0.3,0.3,0.6,0.4,1,0.2s0.5-0.6,0.4-1.1
	c-2-6.7-4.2-13.3-8-19.3c-2.5-4-5.2-7.8-8.7-11C155.2,918.3,154.7,917.7,154,917.6L154,917.6z M33.5,972.7c0-2.1-0.6-4.8-1.5-7.4
	c-0.9-2.4-2.4-4.3-4.4-5.8c-1-0.7-1.9-0.7-2.9,0c-1.3,1-2.3,2.2-2.8,3.8c-1,2.8-1.1,5.6-0.9,8.6c0.1,2.1,1.1,3.7,2.8,5
	c2,1.5,4.3,2.5,6.6,3.5c1.4,0.6,2.4,0.1,2.7-1.3C33.2,977.1,33.5,975.3,33.5,972.7L33.5,972.7z M167.5,972.8c0,2.5,0.3,4.5,0.7,6.5
	c0.2,1.1,1.2,1.6,2.2,1.2c2.1-0.9,4.1-1.8,6-3c2.7-1.7,3.9-4,3.8-7.1c0-1.5-0.1-3.1-0.4-4.6c-0.4-2.2-1.2-4.2-2.9-5.7
	c-1.3-1.2-2.5-1.3-3.9-0.2c-1.1,0.9-2.1,2-2.8,3.2C168.3,966.1,167.8,969.7,167.5,972.8L167.5,972.8z"/>
</svg>
